<mxfile>
    <diagram name="模块图" id="uwP_cv4Za6mrKgYl1uba">
        <mxGraphModel dx="1814" dy="1110" grid="1" gridSize="10" guides="1" tooltips="1" connect="1" arrows="1" fold="1" page="0" pageScale="1" pageWidth="827" pageHeight="1169" math="0" shadow="0">
            <root>
                <mxCell id="vnUgz8AOUEeeNClX_uRJ-0"/>
                <mxCell id="vnUgz8AOUEeeNClX_uRJ-1" parent="vnUgz8AOUEeeNClX_uRJ-0"/>
                <mxCell id="vnUgz8AOUEeeNClX_uRJ-8" value="词法解析" style="verticalAlign=top;align=left;spacingTop=8;spacingLeft=2;spacingRight=12;shape=cube;size=10;direction=south;fontStyle=4;html=1;" parent="vnUgz8AOUEeeNClX_uRJ-1" vertex="1">
                    <mxGeometry x="350" y="-190" width="320" height="255" as="geometry"/>
                </mxCell>
                <mxCell id="vnUgz8AOUEeeNClX_uRJ-2" value="lexer" style="shape=module;align=left;spacingLeft=20;align=center;verticalAlign=top;" parent="vnUgz8AOUEeeNClX_uRJ-1" vertex="1">
                    <mxGeometry x="180" y="120" width="100" height="50" as="geometry"/>
                </mxCell>
                <mxCell id="vnUgz8AOUEeeNClX_uRJ-3" value="parse" style="shape=module;align=left;spacingLeft=20;align=center;verticalAlign=top;" parent="vnUgz8AOUEeeNClX_uRJ-1" vertex="1">
                    <mxGeometry x="820" y="220" width="100" height="50" as="geometry"/>
                </mxCell>
                <mxCell id="vnUgz8AOUEeeNClX_uRJ-4" value="cmd" style="shape=module;align=left;spacingLeft=20;align=center;verticalAlign=top;" parent="vnUgz8AOUEeeNClX_uRJ-1" vertex="1">
                    <mxGeometry x="970" y="220" width="100" height="50" as="geometry"/>
                </mxCell>
                <mxCell id="vnUgz8AOUEeeNClX_uRJ-36" style="edgeStyle=orthogonalEdgeStyle;rounded=0;orthogonalLoop=1;jettySize=auto;html=1;" parent="vnUgz8AOUEeeNClX_uRJ-1" source="vnUgz8AOUEeeNClX_uRJ-6" target="vnUgz8AOUEeeNClX_uRJ-2" edge="1">
                    <mxGeometry relative="1" as="geometry">
                        <Array as="points">
                            <mxPoint x="-90" y="210"/>
                            <mxPoint x="230" y="210"/>
                        </Array>
                    </mxGeometry>
                </mxCell>
                <mxCell id="vnUgz8AOUEeeNClX_uRJ-6" value="utils" style="shape=module;align=left;spacingLeft=20;align=center;verticalAlign=top;" parent="vnUgz8AOUEeeNClX_uRJ-1" vertex="1">
                    <mxGeometry x="-140" y="280" width="100" height="50" as="geometry"/>
                </mxCell>
                <mxCell id="vnUgz8AOUEeeNClX_uRJ-37" style="edgeStyle=orthogonalEdgeStyle;rounded=0;orthogonalLoop=1;jettySize=auto;html=1;" parent="vnUgz8AOUEeeNClX_uRJ-1" source="vnUgz8AOUEeeNClX_uRJ-7" target="vnUgz8AOUEeeNClX_uRJ-2" edge="1">
                    <mxGeometry relative="1" as="geometry"/>
                </mxCell>
                <mxCell id="vnUgz8AOUEeeNClX_uRJ-7" value="token" style="shape=module;align=left;spacingLeft=20;align=center;verticalAlign=top;" parent="vnUgz8AOUEeeNClX_uRJ-1" vertex="1">
                    <mxGeometry x="180" y="280" width="100" height="50" as="geometry"/>
                </mxCell>
                <mxCell id="vnUgz8AOUEeeNClX_uRJ-38" style="edgeStyle=orthogonalEdgeStyle;rounded=0;orthogonalLoop=1;jettySize=auto;html=1;" parent="vnUgz8AOUEeeNClX_uRJ-1" source="vnUgz8AOUEeeNClX_uRJ-9" target="vnUgz8AOUEeeNClX_uRJ-2" edge="1">
                    <mxGeometry relative="1" as="geometry">
                        <Array as="points">
                            <mxPoint x="610" y="210"/>
                            <mxPoint x="230" y="210"/>
                        </Array>
                    </mxGeometry>
                </mxCell>
                <mxCell id="vnUgz8AOUEeeNClX_uRJ-9" value="dfa" style="shape=module;align=left;spacingLeft=20;align=center;verticalAlign=top;" parent="vnUgz8AOUEeeNClX_uRJ-1" vertex="1">
                    <mxGeometry x="560" y="280" width="100" height="50" as="geometry"/>
                </mxCell>
                <mxCell id="vnUgz8AOUEeeNClX_uRJ-20" style="edgeStyle=orthogonalEdgeStyle;rounded=0;orthogonalLoop=1;jettySize=auto;html=1;" parent="vnUgz8AOUEeeNClX_uRJ-1" source="vnUgz8AOUEeeNClX_uRJ-11" target="vnUgz8AOUEeeNClX_uRJ-7" edge="1">
                    <mxGeometry relative="1" as="geometry"/>
                </mxCell>
                <mxCell id="vnUgz8AOUEeeNClX_uRJ-11" value="token_type" style="swimlane;fontStyle=1;align=center;verticalAlign=top;childLayout=stackLayout;horizontal=1;startSize=26;horizontalStack=0;resizeParent=1;resizeParentMax=0;resizeLast=0;collapsible=1;marginBottom=0;" parent="vnUgz8AOUEeeNClX_uRJ-1" vertex="1">
                    <mxGeometry x="70" y="470" width="160" height="86" as="geometry"/>
                </mxCell>
                <mxCell id="vnUgz8AOUEeeNClX_uRJ-12" value="+ field: type" style="text;strokeColor=none;fillColor=none;align=left;verticalAlign=top;spacingLeft=4;spacingRight=4;overflow=hidden;rotatable=0;points=[[0,0.5],[1,0.5]];portConstraint=eastwest;fontStyle=0" parent="vnUgz8AOUEeeNClX_uRJ-11" vertex="1">
                    <mxGeometry y="26" width="160" height="26" as="geometry"/>
                </mxCell>
                <mxCell id="vnUgz8AOUEeeNClX_uRJ-13" value="" style="line;strokeWidth=1;fillColor=none;align=left;verticalAlign=middle;spacingTop=-1;spacingLeft=3;spacingRight=3;rotatable=0;labelPosition=right;points=[];portConstraint=eastwest;" parent="vnUgz8AOUEeeNClX_uRJ-11" vertex="1">
                    <mxGeometry y="52" width="160" height="8" as="geometry"/>
                </mxCell>
                <mxCell id="vnUgz8AOUEeeNClX_uRJ-14" value="+ method(type): type" style="text;strokeColor=none;fillColor=none;align=left;verticalAlign=top;spacingLeft=4;spacingRight=4;overflow=hidden;rotatable=0;points=[[0,0.5],[1,0.5]];portConstraint=eastwest;" parent="vnUgz8AOUEeeNClX_uRJ-11" vertex="1">
                    <mxGeometry y="60" width="160" height="26" as="geometry"/>
                </mxCell>
                <mxCell id="vnUgz8AOUEeeNClX_uRJ-21" style="edgeStyle=orthogonalEdgeStyle;rounded=0;orthogonalLoop=1;jettySize=auto;html=1;" parent="vnUgz8AOUEeeNClX_uRJ-1" source="vnUgz8AOUEeeNClX_uRJ-15" target="vnUgz8AOUEeeNClX_uRJ-7" edge="1">
                    <mxGeometry relative="1" as="geometry"/>
                </mxCell>
                <mxCell id="vnUgz8AOUEeeNClX_uRJ-15" value="token_struct" style="swimlane;fontStyle=1;align=center;verticalAlign=top;childLayout=stackLayout;horizontal=1;startSize=26;horizontalStack=0;resizeParent=1;resizeParentMax=0;resizeLast=0;collapsible=1;marginBottom=0;" parent="vnUgz8AOUEeeNClX_uRJ-1" vertex="1">
                    <mxGeometry x="250" y="470" width="160" height="86" as="geometry"/>
                </mxCell>
                <mxCell id="vnUgz8AOUEeeNClX_uRJ-16" value="+ field: type" style="text;strokeColor=none;fillColor=none;align=left;verticalAlign=top;spacingLeft=4;spacingRight=4;overflow=hidden;rotatable=0;points=[[0,0.5],[1,0.5]];portConstraint=eastwest;" parent="vnUgz8AOUEeeNClX_uRJ-15" vertex="1">
                    <mxGeometry y="26" width="160" height="26" as="geometry"/>
                </mxCell>
                <mxCell id="vnUgz8AOUEeeNClX_uRJ-17" value="" style="line;strokeWidth=1;fillColor=none;align=left;verticalAlign=middle;spacingTop=-1;spacingLeft=3;spacingRight=3;rotatable=0;labelPosition=right;points=[];portConstraint=eastwest;" parent="vnUgz8AOUEeeNClX_uRJ-15" vertex="1">
                    <mxGeometry y="52" width="160" height="8" as="geometry"/>
                </mxCell>
                <mxCell id="vnUgz8AOUEeeNClX_uRJ-18" value="+ method(type): type" style="text;strokeColor=none;fillColor=none;align=left;verticalAlign=top;spacingLeft=4;spacingRight=4;overflow=hidden;rotatable=0;points=[[0,0.5],[1,0.5]];portConstraint=eastwest;" parent="vnUgz8AOUEeeNClX_uRJ-15" vertex="1">
                    <mxGeometry y="60" width="160" height="26" as="geometry"/>
                </mxCell>
                <mxCell id="vnUgz8AOUEeeNClX_uRJ-30" style="edgeStyle=orthogonalEdgeStyle;rounded=0;orthogonalLoop=1;jettySize=auto;html=1;" parent="vnUgz8AOUEeeNClX_uRJ-1" source="vnUgz8AOUEeeNClX_uRJ-22" target="vnUgz8AOUEeeNClX_uRJ-9" edge="1">
                    <mxGeometry relative="1" as="geometry"/>
                </mxCell>
                <mxCell id="vnUgz8AOUEeeNClX_uRJ-22" value="dfa_state" style="swimlane;fontStyle=1;align=center;verticalAlign=top;childLayout=stackLayout;horizontal=1;startSize=26;horizontalStack=0;resizeParent=1;resizeParentMax=0;resizeLast=0;collapsible=1;marginBottom=0;" parent="vnUgz8AOUEeeNClX_uRJ-1" vertex="1">
                    <mxGeometry x="440" y="470" width="160" height="86" as="geometry"/>
                </mxCell>
                <mxCell id="vnUgz8AOUEeeNClX_uRJ-23" value="+ field: type" style="text;strokeColor=none;fillColor=none;align=left;verticalAlign=top;spacingLeft=4;spacingRight=4;overflow=hidden;rotatable=0;points=[[0,0.5],[1,0.5]];portConstraint=eastwest;" parent="vnUgz8AOUEeeNClX_uRJ-22" vertex="1">
                    <mxGeometry y="26" width="160" height="26" as="geometry"/>
                </mxCell>
                <mxCell id="vnUgz8AOUEeeNClX_uRJ-24" value="" style="line;strokeWidth=1;fillColor=none;align=left;verticalAlign=middle;spacingTop=-1;spacingLeft=3;spacingRight=3;rotatable=0;labelPosition=right;points=[];portConstraint=eastwest;" parent="vnUgz8AOUEeeNClX_uRJ-22" vertex="1">
                    <mxGeometry y="52" width="160" height="8" as="geometry"/>
                </mxCell>
                <mxCell id="vnUgz8AOUEeeNClX_uRJ-25" value="+ method(type): type" style="text;strokeColor=none;fillColor=none;align=left;verticalAlign=top;spacingLeft=4;spacingRight=4;overflow=hidden;rotatable=0;points=[[0,0.5],[1,0.5]];portConstraint=eastwest;" parent="vnUgz8AOUEeeNClX_uRJ-22" vertex="1">
                    <mxGeometry y="60" width="160" height="26" as="geometry"/>
                </mxCell>
                <mxCell id="vnUgz8AOUEeeNClX_uRJ-31" style="edgeStyle=orthogonalEdgeStyle;rounded=0;orthogonalLoop=1;jettySize=auto;html=1;" parent="vnUgz8AOUEeeNClX_uRJ-1" source="vnUgz8AOUEeeNClX_uRJ-26" target="vnUgz8AOUEeeNClX_uRJ-9" edge="1">
                    <mxGeometry relative="1" as="geometry"/>
                </mxCell>
                <mxCell id="vnUgz8AOUEeeNClX_uRJ-26" value="dfa_state_handing" style="swimlane;fontStyle=1;align=center;verticalAlign=top;childLayout=stackLayout;horizontal=1;startSize=26;horizontalStack=0;resizeParent=1;resizeParentMax=0;resizeLast=0;collapsible=1;marginBottom=0;" parent="vnUgz8AOUEeeNClX_uRJ-1" vertex="1">
                    <mxGeometry x="630" y="470" width="160" height="86" as="geometry"/>
                </mxCell>
                <mxCell id="vnUgz8AOUEeeNClX_uRJ-27" value="+ field: type" style="text;strokeColor=none;fillColor=none;align=left;verticalAlign=top;spacingLeft=4;spacingRight=4;overflow=hidden;rotatable=0;points=[[0,0.5],[1,0.5]];portConstraint=eastwest;" parent="vnUgz8AOUEeeNClX_uRJ-26" vertex="1">
                    <mxGeometry y="26" width="160" height="26" as="geometry"/>
                </mxCell>
                <mxCell id="vnUgz8AOUEeeNClX_uRJ-28" value="" style="line;strokeWidth=1;fillColor=none;align=left;verticalAlign=middle;spacingTop=-1;spacingLeft=3;spacingRight=3;rotatable=0;labelPosition=right;points=[];portConstraint=eastwest;" parent="vnUgz8AOUEeeNClX_uRJ-26" vertex="1">
                    <mxGeometry y="52" width="160" height="8" as="geometry"/>
                </mxCell>
                <mxCell id="vnUgz8AOUEeeNClX_uRJ-29" value="+ method(type): type" style="text;strokeColor=none;fillColor=none;align=left;verticalAlign=top;spacingLeft=4;spacingRight=4;overflow=hidden;rotatable=0;points=[[0,0.5],[1,0.5]];portConstraint=eastwest;" parent="vnUgz8AOUEeeNClX_uRJ-26" vertex="1">
                    <mxGeometry y="60" width="160" height="26" as="geometry"/>
                </mxCell>
                <mxCell id="vnUgz8AOUEeeNClX_uRJ-39" style="edgeStyle=orthogonalEdgeStyle;rounded=0;orthogonalLoop=1;jettySize=auto;html=1;" parent="vnUgz8AOUEeeNClX_uRJ-1" source="vnUgz8AOUEeeNClX_uRJ-32" target="vnUgz8AOUEeeNClX_uRJ-6" edge="1">
                    <mxGeometry relative="1" as="geometry"/>
                </mxCell>
                <mxCell id="vnUgz8AOUEeeNClX_uRJ-32" value="char_help" style="swimlane;fontStyle=1;align=center;verticalAlign=top;childLayout=stackLayout;horizontal=1;startSize=26;horizontalStack=0;resizeParent=1;resizeParentMax=0;resizeLast=0;collapsible=1;marginBottom=0;" parent="vnUgz8AOUEeeNClX_uRJ-1" vertex="1">
                    <mxGeometry x="-250" y="470" width="160" height="86" as="geometry"/>
                </mxCell>
                <mxCell id="vnUgz8AOUEeeNClX_uRJ-33" value="+ field: type" style="text;strokeColor=none;fillColor=none;align=left;verticalAlign=top;spacingLeft=4;spacingRight=4;overflow=hidden;rotatable=0;points=[[0,0.5],[1,0.5]];portConstraint=eastwest;fontStyle=0" parent="vnUgz8AOUEeeNClX_uRJ-32" vertex="1">
                    <mxGeometry y="26" width="160" height="26" as="geometry"/>
                </mxCell>
                <mxCell id="vnUgz8AOUEeeNClX_uRJ-34" value="" style="line;strokeWidth=1;fillColor=none;align=left;verticalAlign=middle;spacingTop=-1;spacingLeft=3;spacingRight=3;rotatable=0;labelPosition=right;points=[];portConstraint=eastwest;" parent="vnUgz8AOUEeeNClX_uRJ-32" vertex="1">
                    <mxGeometry y="52" width="160" height="8" as="geometry"/>
                </mxCell>
                <mxCell id="vnUgz8AOUEeeNClX_uRJ-35" value="+ method(type): type" style="text;strokeColor=none;fillColor=none;align=left;verticalAlign=top;spacingLeft=4;spacingRight=4;overflow=hidden;rotatable=0;points=[[0,0.5],[1,0.5]];portConstraint=eastwest;" parent="vnUgz8AOUEeeNClX_uRJ-32" vertex="1">
                    <mxGeometry y="60" width="160" height="26" as="geometry"/>
                </mxCell>
            </root>
        </mxGraphModel>
    </diagram>
    <diagram name="词法分析" id="I2S85ru2hOiJU-I1TbDO">
        &#xa;        &#xa;        &#xa;        &#xa;        &#xa;        &#xa;        &#xa;        &#xa;&#xa;&#xa;&#xa;&#xa;&#xa;&#xa;&#xa;
        <mxGraphModel dx="847" dy="1480" grid="1" gridSize="10" guides="1" tooltips="1" connect="1" arrows="1" fold="1" page="0" pageScale="1" pageWidth="827" pageHeight="1169" math="0" shadow="0">
            &#xa;            &#xa;            &#xa;            &#xa;            &#xa;            &#xa;            &#xa;            &#xa;&#xa;&#xa;&#xa;&#xa;&#xa;&#xa;&#xa;
            <root>
                &#xa;                &#xa;                &#xa;                &#xa;                &#xa;                &#xa;                &#xa;                &#xa;&#xa;&#xa;&#xa;&#xa;&#xa;&#xa;&#xa;
                <mxCell id="0"/>
                &#xa;                &#xa;                &#xa;                &#xa;                &#xa;                &#xa;                &#xa;                &#xa;&#xa;&#xa;&#xa;&#xa;&#xa;&#xa;&#xa;
                <mxCell id="1" parent="0"/>
                &#xa;                &#xa;                &#xa;                &#xa;                &#xa;                &#xa;                &#xa;                &#xa;&#xa;&#xa;&#xa;&#xa;&#xa;&#xa;&#xa;
                <mxCell id="VolHrzRmZmBoHfwZ25A--4" style="orthogonalLoop=1;jettySize=auto;html=1;strokeWidth=2;" parent="1" source="VolHrzRmZmBoHfwZ25A--1" target="VolHrzRmZmBoHfwZ25A--2" edge="1">
                    &#xa;                    &#xa;                    &#xa;                    &#xa;                    &#xa;                    &#xa;                    &#xa;                    &#xa;&#xa;&#xa;&#xa;&#xa;&#xa;&#xa;&#xa;
                    <mxGeometry relative="1" as="geometry"/>
                    &#xa;                    &#xa;                    &#xa;                    &#xa;                    &#xa;                    &#xa;                    &#xa;                    &#xa;&#xa;&#xa;&#xa;&#xa;&#xa;&#xa;&#xa;
                </mxCell>
                &#xa;                &#xa;                &#xa;                &#xa;                &#xa;                &#xa;                &#xa;                &#xa;&#xa;&#xa;&#xa;&#xa;&#xa;&#xa;&#xa;
                <mxCell id="VolHrzRmZmBoHfwZ25A--15" value="&lt;span style=&quot;&quot;&gt;字母&lt;/span&gt;" style="edgeLabel;html=1;align=center;verticalAlign=middle;resizable=0;points=[];fontStyle=1;fontSize=14;" parent="VolHrzRmZmBoHfwZ25A--4" vertex="1" connectable="0">
                    &#xa;                    &#xa;                    &#xa;                    &#xa;                    &#xa;                    &#xa;                    &#xa;                    &#xa;&#xa;&#xa;&#xa;&#xa;&#xa;&#xa;&#xa;
                    <mxGeometry x="-0.0018" y="2" relative="1" as="geometry">
                        &#xa;                        &#xa;                        &#xa;                        &#xa;                        &#xa;                        &#xa;                        &#xa;                        &#xa;&#xa;&#xa;&#xa;&#xa;&#xa;&#xa;&#xa;
                        <mxPoint as="offset"/>
                        &#xa;                        &#xa;                        &#xa;                        &#xa;                        &#xa;                        &#xa;                        &#xa;                        &#xa;&#xa;&#xa;&#xa;&#xa;&#xa;&#xa;&#xa;
                    </mxGeometry>
                    &#xa;                    &#xa;                    &#xa;                    &#xa;                    &#xa;                    &#xa;                    &#xa;                    &#xa;&#xa;&#xa;&#xa;&#xa;&#xa;&#xa;&#xa;
                </mxCell>
                &#xa;                &#xa;                &#xa;                &#xa;                &#xa;                &#xa;                &#xa;                &#xa;&#xa;&#xa;&#xa;&#xa;&#xa;&#xa;&#xa;
                <mxCell id="VolHrzRmZmBoHfwZ25A--7" style="edgeStyle=none;orthogonalLoop=1;jettySize=auto;html=1;strokeWidth=2;" parent="1" source="VolHrzRmZmBoHfwZ25A--1" target="VolHrzRmZmBoHfwZ25A--5" edge="1">
                    &#xa;                    &#xa;                    &#xa;                    &#xa;                    &#xa;                    &#xa;                    &#xa;                    &#xa;&#xa;&#xa;&#xa;&#xa;&#xa;&#xa;&#xa;
                    <mxGeometry relative="1" as="geometry"/>
                    &#xa;                    &#xa;                    &#xa;                    &#xa;                    &#xa;                    &#xa;                    &#xa;                    &#xa;&#xa;&#xa;&#xa;&#xa;&#xa;&#xa;&#xa;
                </mxCell>
                &#xa;                &#xa;                &#xa;                &#xa;                &#xa;                &#xa;                &#xa;                &#xa;&#xa;&#xa;&#xa;&#xa;&#xa;&#xa;&#xa;
                <mxCell id="VolHrzRmZmBoHfwZ25A--16" value="&amp;gt;" style="edgeLabel;html=1;align=center;verticalAlign=middle;resizable=0;points=[];fontSize=14;fontStyle=1;" parent="VolHrzRmZmBoHfwZ25A--7" vertex="1" connectable="0">
                    &#xa;                    &#xa;                    &#xa;                    &#xa;                    &#xa;                    &#xa;                    &#xa;                    &#xa;&#xa;&#xa;&#xa;&#xa;&#xa;&#xa;&#xa;
                    <mxGeometry x="-0.04" y="3" relative="1" as="geometry">
                        &#xa;                        &#xa;                        &#xa;                        &#xa;                        &#xa;                        &#xa;                        &#xa;                        &#xa;&#xa;&#xa;&#xa;&#xa;&#xa;&#xa;&#xa;
                        <mxPoint y="-7" as="offset"/>
                        &#xa;                        &#xa;                        &#xa;                        &#xa;                        &#xa;                        &#xa;                        &#xa;                        &#xa;&#xa;&#xa;&#xa;&#xa;&#xa;&#xa;&#xa;
                    </mxGeometry>
                    &#xa;                    &#xa;                    &#xa;                    &#xa;                    &#xa;                    &#xa;                    &#xa;                    &#xa;&#xa;&#xa;&#xa;&#xa;&#xa;&#xa;&#xa;
                </mxCell>
                &#xa;                &#xa;                &#xa;                &#xa;                &#xa;                &#xa;                &#xa;                &#xa;&#xa;&#xa;&#xa;&#xa;&#xa;&#xa;&#xa;
                <mxCell id="VolHrzRmZmBoHfwZ25A--10" style="edgeStyle=none;orthogonalLoop=1;jettySize=auto;html=1;strokeWidth=2;" parent="1" source="VolHrzRmZmBoHfwZ25A--1" target="VolHrzRmZmBoHfwZ25A--9" edge="1">
                    &#xa;                    &#xa;                    &#xa;                    &#xa;                    &#xa;                    &#xa;                    &#xa;                    &#xa;&#xa;&#xa;&#xa;&#xa;&#xa;&#xa;&#xa;
                    <mxGeometry relative="1" as="geometry"/>
                    &#xa;                    &#xa;                    &#xa;                    &#xa;                    &#xa;                    &#xa;                    &#xa;                    &#xa;&#xa;&#xa;&#xa;&#xa;&#xa;&#xa;&#xa;
                </mxCell>
                &#xa;                &#xa;                &#xa;                &#xa;                &#xa;                &#xa;                &#xa;                &#xa;&#xa;&#xa;&#xa;&#xa;&#xa;&#xa;&#xa;
                <mxCell id="VolHrzRmZmBoHfwZ25A--18" value="数字" style="edgeLabel;html=1;align=center;verticalAlign=middle;resizable=0;points=[];fontSize=14;fontColor=#000000;fontStyle=1;" parent="VolHrzRmZmBoHfwZ25A--10" vertex="1" connectable="0">
                    &#xa;                    &#xa;                    &#xa;                    &#xa;                    &#xa;                    &#xa;                    &#xa;                    &#xa;&#xa;&#xa;&#xa;&#xa;&#xa;&#xa;&#xa;
                    <mxGeometry x="-0.111" y="4" relative="1" as="geometry">
                        &#xa;                        &#xa;                        &#xa;                        &#xa;                        &#xa;                        &#xa;                        &#xa;                        &#xa;&#xa;&#xa;&#xa;&#xa;&#xa;&#xa;&#xa;
                        <mxPoint x="14" as="offset"/>
                        &#xa;                        &#xa;                        &#xa;                        &#xa;                        &#xa;                        &#xa;                        &#xa;                        &#xa;&#xa;&#xa;&#xa;&#xa;&#xa;&#xa;&#xa;
                    </mxGeometry>
                    &#xa;                    &#xa;                    &#xa;                    &#xa;                    &#xa;                    &#xa;                    &#xa;                    &#xa;&#xa;&#xa;&#xa;&#xa;&#xa;&#xa;&#xa;
                </mxCell>
                &#xa;                &#xa;                &#xa;                &#xa;                &#xa;                &#xa;                &#xa;                &#xa;&#xa;&#xa;&#xa;&#xa;&#xa;&#xa;&#xa;
                <mxCell id="uLCkvGMUGLUAcvmiJcZs-8" style="rounded=0;orthogonalLoop=1;jettySize=auto;html=1;strokeWidth=2;" parent="1" source="VolHrzRmZmBoHfwZ25A--1" target="uLCkvGMUGLUAcvmiJcZs-1" edge="1">
                    &#xa;                    &#xa;                    &#xa;                    &#xa;                    &#xa;                    &#xa;                    &#xa;                    &#xa;&#xa;&#xa;&#xa;&#xa;&#xa;&#xa;&#xa;
                    <mxGeometry relative="1" as="geometry"/>
                    &#xa;                    &#xa;                    &#xa;                    &#xa;                    &#xa;                    &#xa;                    &#xa;                    &#xa;&#xa;&#xa;&#xa;&#xa;&#xa;&#xa;&#xa;
                </mxCell>
                &#xa;                &#xa;                &#xa;                &#xa;                &#xa;                &#xa;                &#xa;                &#xa;&#xa;&#xa;&#xa;&#xa;&#xa;&#xa;&#xa;
                <mxCell id="uLCkvGMUGLUAcvmiJcZs-9" style="edgeStyle=none;rounded=0;orthogonalLoop=1;jettySize=auto;html=1;strokeWidth=2;" parent="1" source="VolHrzRmZmBoHfwZ25A--1" target="uLCkvGMUGLUAcvmiJcZs-2" edge="1">
                    &#xa;                    &#xa;                    &#xa;                    &#xa;                    &#xa;                    &#xa;                    &#xa;                    &#xa;&#xa;&#xa;&#xa;&#xa;&#xa;&#xa;&#xa;
                    <mxGeometry relative="1" as="geometry"/>
                    &#xa;                    &#xa;                    &#xa;                    &#xa;                    &#xa;                    &#xa;                    &#xa;                    &#xa;&#xa;&#xa;&#xa;&#xa;&#xa;&#xa;&#xa;
                </mxCell>
                &#xa;                &#xa;                &#xa;                &#xa;                &#xa;                &#xa;                &#xa;                &#xa;&#xa;&#xa;&#xa;&#xa;&#xa;&#xa;&#xa;
                <mxCell id="uLCkvGMUGLUAcvmiJcZs-10" style="edgeStyle=none;rounded=0;orthogonalLoop=1;jettySize=auto;html=1;strokeWidth=2;" parent="1" source="VolHrzRmZmBoHfwZ25A--1" target="uLCkvGMUGLUAcvmiJcZs-3" edge="1">
                    &#xa;                    &#xa;                    &#xa;                    &#xa;                    &#xa;                    &#xa;                    &#xa;                    &#xa;&#xa;&#xa;&#xa;&#xa;&#xa;&#xa;&#xa;
                    <mxGeometry relative="1" as="geometry"/>
                    &#xa;                    &#xa;                    &#xa;                    &#xa;                    &#xa;                    &#xa;                    &#xa;                    &#xa;&#xa;&#xa;&#xa;&#xa;&#xa;&#xa;&#xa;
                </mxCell>
                &#xa;                &#xa;                &#xa;                &#xa;                &#xa;                &#xa;                &#xa;                &#xa;&#xa;&#xa;&#xa;&#xa;&#xa;&#xa;&#xa;
                <mxCell id="uLCkvGMUGLUAcvmiJcZs-11" style="edgeStyle=none;rounded=0;orthogonalLoop=1;jettySize=auto;html=1;strokeWidth=2;" parent="1" source="VolHrzRmZmBoHfwZ25A--1" target="uLCkvGMUGLUAcvmiJcZs-4" edge="1">
                    &#xa;                    &#xa;                    &#xa;                    &#xa;                    &#xa;                    &#xa;                    &#xa;                    &#xa;&#xa;&#xa;&#xa;&#xa;&#xa;&#xa;&#xa;
                    <mxGeometry relative="1" as="geometry"/>
                    &#xa;                    &#xa;                    &#xa;                    &#xa;                    &#xa;                    &#xa;                    &#xa;                    &#xa;&#xa;&#xa;&#xa;&#xa;&#xa;&#xa;&#xa;
                </mxCell>
                &#xa;                &#xa;                &#xa;                &#xa;                &#xa;                &#xa;                &#xa;                &#xa;&#xa;&#xa;&#xa;&#xa;&#xa;&#xa;&#xa;
                <mxCell id="uLCkvGMUGLUAcvmiJcZs-12" style="edgeStyle=none;rounded=0;orthogonalLoop=1;jettySize=auto;html=1;strokeWidth=2;" parent="1" source="VolHrzRmZmBoHfwZ25A--1" target="uLCkvGMUGLUAcvmiJcZs-6" edge="1">
                    &#xa;                    &#xa;                    &#xa;                    &#xa;                    &#xa;                    &#xa;                    &#xa;                    &#xa;&#xa;&#xa;&#xa;&#xa;&#xa;&#xa;&#xa;
                    <mxGeometry relative="1" as="geometry"/>
                    &#xa;                    &#xa;                    &#xa;                    &#xa;                    &#xa;                    &#xa;                    &#xa;                    &#xa;&#xa;&#xa;&#xa;&#xa;&#xa;&#xa;&#xa;
                </mxCell>
                &#xa;                &#xa;                &#xa;                &#xa;                &#xa;                &#xa;                &#xa;                &#xa;&#xa;&#xa;&#xa;&#xa;&#xa;&#xa;&#xa;
                <mxCell id="VolHrzRmZmBoHfwZ25A--1" value="initial" style="ellipse;whiteSpace=wrap;html=1;aspect=fixed;fillColor=#fad7ac;strokeColor=#b46504;" parent="1" vertex="1">
                    &#xa;                    &#xa;                    &#xa;                    &#xa;                    &#xa;                    &#xa;                    &#xa;                    &#xa;&#xa;&#xa;&#xa;&#xa;&#xa;&#xa;&#xa;
                    <mxGeometry x="70" y="290" width="80" height="80" as="geometry"/>
                    &#xa;                    &#xa;                    &#xa;                    &#xa;                    &#xa;                    &#xa;                    &#xa;                    &#xa;&#xa;&#xa;&#xa;&#xa;&#xa;&#xa;&#xa;
                </mxCell>
                &#xa;                &#xa;                &#xa;                &#xa;                &#xa;                &#xa;                &#xa;                &#xa;&#xa;&#xa;&#xa;&#xa;&#xa;&#xa;&#xa;
                <mxCell id="LlK3BDQDhs1cryQ8cUaz-13" style="edgeStyle=none;rounded=0;jumpStyle=arc;orthogonalLoop=1;jettySize=auto;html=1;fontSize=15;fontColor=#000000;endArrow=classic;endFill=1;strokeWidth=2;startArrow=classic;startFill=1;" parent="1" source="VolHrzRmZmBoHfwZ25A--2" target="LlK3BDQDhs1cryQ8cUaz-1" edge="1">
                    &#xa;                    &#xa;                    &#xa;                    &#xa;                    &#xa;                    &#xa;                    &#xa;                    &#xa;&#xa;&#xa;&#xa;&#xa;&#xa;&#xa;&#xa;
                    <mxGeometry relative="1" as="geometry"/>
                    &#xa;                    &#xa;                    &#xa;                    &#xa;                    &#xa;                    &#xa;                    &#xa;                    &#xa;&#xa;&#xa;&#xa;&#xa;&#xa;&#xa;&#xa;
                </mxCell>
                &#xa;                &#xa;                &#xa;                &#xa;                &#xa;                &#xa;                &#xa;                &#xa;&#xa;&#xa;&#xa;&#xa;&#xa;&#xa;&#xa;
                <mxCell id="LlK3BDQDhs1cryQ8cUaz-14" value="i" style="edgeLabel;html=1;align=center;verticalAlign=middle;resizable=0;points=[];fontSize=15;fontColor=#000000;" parent="LlK3BDQDhs1cryQ8cUaz-13" vertex="1" connectable="0">
                    &#xa;                    &#xa;                    &#xa;                    &#xa;                    &#xa;                    &#xa;                    &#xa;                    &#xa;&#xa;&#xa;&#xa;&#xa;&#xa;&#xa;&#xa;
                    <mxGeometry x="-0.124" y="1" relative="1" as="geometry">
                        &#xa;                        &#xa;                        &#xa;                        &#xa;                        &#xa;                        &#xa;                        &#xa;                        &#xa;&#xa;&#xa;&#xa;&#xa;&#xa;&#xa;&#xa;
                        <mxPoint x="9" y="1" as="offset"/>
                        &#xa;                        &#xa;                        &#xa;                        &#xa;                        &#xa;                        &#xa;                        &#xa;                        &#xa;&#xa;&#xa;&#xa;&#xa;&#xa;&#xa;&#xa;
                    </mxGeometry>
                    &#xa;                    &#xa;                    &#xa;                    &#xa;                    &#xa;                    &#xa;                    &#xa;                    &#xa;&#xa;&#xa;&#xa;&#xa;&#xa;&#xa;&#xa;
                </mxCell>
                &#xa;                &#xa;                &#xa;                &#xa;                &#xa;                &#xa;                &#xa;                &#xa;&#xa;&#xa;&#xa;&#xa;&#xa;&#xa;&#xa;
                <mxCell id="VolHrzRmZmBoHfwZ25A--2" value="identifier" style="ellipse;whiteSpace=wrap;html=1;aspect=fixed;perimeterSpacing=1;shadow=0;strokeWidth=1;fillColor=#d0cee2;strokeColor=#56517e;" parent="1" vertex="1">
                    &#xa;                    &#xa;                    &#xa;                    &#xa;                    &#xa;                    &#xa;                    &#xa;                    &#xa;&#xa;&#xa;&#xa;&#xa;&#xa;&#xa;&#xa;
                    <mxGeometry x="300" y="180" width="80" height="80" as="geometry"/>
                    &#xa;                    &#xa;                    &#xa;                    &#xa;                    &#xa;                    &#xa;                    &#xa;                    &#xa;&#xa;&#xa;&#xa;&#xa;&#xa;&#xa;&#xa;
                </mxCell>
                &#xa;                &#xa;                &#xa;                &#xa;                &#xa;                &#xa;                &#xa;                &#xa;&#xa;&#xa;&#xa;&#xa;&#xa;&#xa;&#xa;
                <mxCell id="VolHrzRmZmBoHfwZ25A--8" style="edgeStyle=none;orthogonalLoop=1;jettySize=auto;html=1;strokeWidth=2;" parent="1" source="VolHrzRmZmBoHfwZ25A--5" target="VolHrzRmZmBoHfwZ25A--6" edge="1">
                    &#xa;                    &#xa;                    &#xa;                    &#xa;                    &#xa;                    &#xa;                    &#xa;                    &#xa;&#xa;&#xa;&#xa;&#xa;&#xa;&#xa;&#xa;
                    <mxGeometry relative="1" as="geometry"/>
                    &#xa;                    &#xa;                    &#xa;                    &#xa;                    &#xa;                    &#xa;                    &#xa;                    &#xa;&#xa;&#xa;&#xa;&#xa;&#xa;&#xa;&#xa;
                </mxCell>
                &#xa;                &#xa;                &#xa;                &#xa;                &#xa;                &#xa;                &#xa;                &#xa;&#xa;&#xa;&#xa;&#xa;&#xa;&#xa;&#xa;
                <mxCell id="VolHrzRmZmBoHfwZ25A--17" value="=" style="edgeLabel;html=1;align=center;verticalAlign=middle;resizable=0;points=[];fontSize=14;fontColor=#000000;" parent="VolHrzRmZmBoHfwZ25A--8" vertex="1" connectable="0">
                    &#xa;                    &#xa;                    &#xa;                    &#xa;                    &#xa;                    &#xa;                    &#xa;                    &#xa;&#xa;&#xa;&#xa;&#xa;&#xa;&#xa;&#xa;
                    <mxGeometry x="-0.1714" y="1" relative="1" as="geometry">
                        &#xa;                        &#xa;                        &#xa;                        &#xa;                        &#xa;                        &#xa;                        &#xa;                        &#xa;&#xa;&#xa;&#xa;&#xa;&#xa;&#xa;&#xa;
                        <mxPoint x="5" y="-9" as="offset"/>
                        &#xa;                        &#xa;                        &#xa;                        &#xa;                        &#xa;                        &#xa;                        &#xa;                        &#xa;&#xa;&#xa;&#xa;&#xa;&#xa;&#xa;&#xa;
                    </mxGeometry>
                    &#xa;                    &#xa;                    &#xa;                    &#xa;                    &#xa;                    &#xa;                    &#xa;                    &#xa;&#xa;&#xa;&#xa;&#xa;&#xa;&#xa;&#xa;
                </mxCell>
                &#xa;                &#xa;                &#xa;                &#xa;                &#xa;                &#xa;                &#xa;                &#xa;&#xa;&#xa;&#xa;&#xa;&#xa;&#xa;&#xa;
                <mxCell id="VolHrzRmZmBoHfwZ25A--5" value="gt" style="ellipse;whiteSpace=wrap;html=1;aspect=fixed;fillColor=#ffff88;strokeColor=#36393d;" parent="1" vertex="1">
                    &#xa;                    &#xa;                    &#xa;                    &#xa;                    &#xa;                    &#xa;                    &#xa;                    &#xa;&#xa;&#xa;&#xa;&#xa;&#xa;&#xa;&#xa;
                    <mxGeometry x="290" y="370" width="80" height="80" as="geometry"/>
                    &#xa;                    &#xa;                    &#xa;                    &#xa;                    &#xa;                    &#xa;                    &#xa;                    &#xa;&#xa;&#xa;&#xa;&#xa;&#xa;&#xa;&#xa;
                </mxCell>
                &#xa;                &#xa;                &#xa;                &#xa;                &#xa;                &#xa;                &#xa;                &#xa;&#xa;&#xa;&#xa;&#xa;&#xa;&#xa;&#xa;
                <mxCell id="VolHrzRmZmBoHfwZ25A--6" value="ge" style="ellipse;whiteSpace=wrap;html=1;aspect=fixed;fillColor=#d0cee2;strokeColor=#56517e;" parent="1" vertex="1">
                    &#xa;                    &#xa;                    &#xa;                    &#xa;                    &#xa;                    &#xa;                    &#xa;                    &#xa;&#xa;&#xa;&#xa;&#xa;&#xa;&#xa;&#xa;
                    <mxGeometry x="470" y="370" width="80" height="80" as="geometry"/>
                    &#xa;                    &#xa;                    &#xa;                    &#xa;                    &#xa;                    &#xa;                    &#xa;                    &#xa;&#xa;&#xa;&#xa;&#xa;&#xa;&#xa;&#xa;
                </mxCell>
                &#xa;                &#xa;                &#xa;                &#xa;                &#xa;                &#xa;                &#xa;                &#xa;&#xa;&#xa;&#xa;&#xa;&#xa;&#xa;&#xa;
                <mxCell id="VolHrzRmZmBoHfwZ25A--9" value="number" style="ellipse;whiteSpace=wrap;html=1;aspect=fixed;fillColor=#d0cee2;strokeColor=#56517e;" parent="1" vertex="1">
                    &#xa;                    &#xa;                    &#xa;                    &#xa;                    &#xa;                    &#xa;                    &#xa;                    &#xa;&#xa;&#xa;&#xa;&#xa;&#xa;&#xa;&#xa;
                    <mxGeometry x="300" y="500" width="80" height="80" as="geometry"/>
                    &#xa;                    &#xa;                    &#xa;                    &#xa;                    &#xa;                    &#xa;                    &#xa;                    &#xa;&#xa;&#xa;&#xa;&#xa;&#xa;&#xa;&#xa;
                </mxCell>
                &#xa;                &#xa;                &#xa;                &#xa;                &#xa;                &#xa;                &#xa;                &#xa;&#xa;&#xa;&#xa;&#xa;&#xa;&#xa;&#xa;
                <mxCell id="VolHrzRmZmBoHfwZ25A--20" value="字母和数字" style="rounded=0;orthogonalLoop=1;jettySize=auto;html=1;fontSize=14;fontColor=#000000;strokeWidth=2;edgeStyle=orthogonalEdgeStyle;elbow=vertical;curved=1;" parent="1" source="VolHrzRmZmBoHfwZ25A--2" target="VolHrzRmZmBoHfwZ25A--2" edge="1">
                    &#xa;                    &#xa;                    &#xa;                    &#xa;                    &#xa;                    &#xa;                    &#xa;                    &#xa;&#xa;&#xa;&#xa;&#xa;&#xa;&#xa;&#xa;
                    <mxGeometry relative="1" as="geometry">
                        &#xa;                        &#xa;                        &#xa;                        &#xa;                        &#xa;                        &#xa;                        &#xa;                        &#xa;&#xa;&#xa;&#xa;&#xa;&#xa;&#xa;&#xa;
                        <Array as="points">
                            &#xa;                            &#xa;                            &#xa;                            &#xa;                            &#xa;                            &#xa;                            &#xa;                            &#xa;&#xa;&#xa;&#xa;&#xa;&#xa;&#xa;&#xa;
                            <mxPoint x="370" y="290"/>
                            &#xa;                            &#xa;                            &#xa;                            &#xa;                            &#xa;                            &#xa;                            &#xa;                            &#xa;&#xa;&#xa;&#xa;&#xa;&#xa;&#xa;&#xa;
                        </Array>
                        &#xa;                        &#xa;                        &#xa;                        &#xa;                        &#xa;                        &#xa;                        &#xa;                        &#xa;&#xa;&#xa;&#xa;&#xa;&#xa;&#xa;&#xa;
                    </mxGeometry>
                    &#xa;                    &#xa;                    &#xa;                    &#xa;                    &#xa;                    &#xa;                    &#xa;                    &#xa;&#xa;&#xa;&#xa;&#xa;&#xa;&#xa;&#xa;
                </mxCell>
                &#xa;                &#xa;                &#xa;                &#xa;                &#xa;                &#xa;                &#xa;                &#xa;&#xa;&#xa;&#xa;&#xa;&#xa;&#xa;&#xa;
                <mxCell id="VolHrzRmZmBoHfwZ25A--21" value="数字" style="edgeStyle=orthogonalEdgeStyle;curved=1;rounded=0;orthogonalLoop=1;jettySize=auto;html=1;fontSize=14;fontColor=#000000;strokeWidth=2;elbow=horizontal;" parent="1" source="VolHrzRmZmBoHfwZ25A--9" target="VolHrzRmZmBoHfwZ25A--9" edge="1">
                    &#xa;                    &#xa;                    &#xa;                    &#xa;                    &#xa;                    &#xa;                    &#xa;                    &#xa;&#xa;&#xa;&#xa;&#xa;&#xa;&#xa;&#xa;
                    <mxGeometry relative="1" as="geometry">
                        &#xa;                        &#xa;                        &#xa;                        &#xa;                        &#xa;                        &#xa;                        &#xa;                        &#xa;&#xa;&#xa;&#xa;&#xa;&#xa;&#xa;&#xa;
                        <Array as="points">
                            &#xa;                            &#xa;                            &#xa;                            &#xa;                            &#xa;                            &#xa;                            &#xa;                            &#xa;&#xa;&#xa;&#xa;&#xa;&#xa;&#xa;&#xa;
                            <mxPoint x="360" y="615"/>
                            &#xa;                            &#xa;                            &#xa;                            &#xa;                            &#xa;                            &#xa;                            &#xa;                            &#xa;&#xa;&#xa;&#xa;&#xa;&#xa;&#xa;&#xa;
                        </Array>
                        &#xa;                        &#xa;                        &#xa;                        &#xa;                        &#xa;                        &#xa;                        &#xa;                        &#xa;&#xa;&#xa;&#xa;&#xa;&#xa;&#xa;&#xa;
                    </mxGeometry>
                    &#xa;                    &#xa;                    &#xa;                    &#xa;                    &#xa;                    &#xa;                    &#xa;                    &#xa;&#xa;&#xa;&#xa;&#xa;&#xa;&#xa;&#xa;
                </mxCell>
                &#xa;                &#xa;                &#xa;                &#xa;                &#xa;                &#xa;                &#xa;                &#xa;&#xa;&#xa;&#xa;&#xa;&#xa;&#xa;&#xa;
                <mxCell id="LlK3BDQDhs1cryQ8cUaz-17" value="n" style="edgeStyle=none;rounded=0;jumpStyle=arc;orthogonalLoop=1;jettySize=auto;html=1;fontSize=15;fontColor=#000000;endArrow=classic;endFill=1;strokeWidth=2;" parent="1" source="LlK3BDQDhs1cryQ8cUaz-1" target="LlK3BDQDhs1cryQ8cUaz-2" edge="1">
                    &#xa;                    &#xa;                    &#xa;                    &#xa;                    &#xa;                    &#xa;                    &#xa;                    &#xa;&#xa;&#xa;&#xa;&#xa;&#xa;&#xa;&#xa;
                    <mxGeometry relative="1" as="geometry"/>
                    &#xa;                    &#xa;                    &#xa;                    &#xa;                    &#xa;                    &#xa;                    &#xa;                    &#xa;&#xa;&#xa;&#xa;&#xa;&#xa;&#xa;&#xa;
                </mxCell>
                &#xa;                &#xa;                &#xa;                &#xa;                &#xa;                &#xa;                &#xa;                &#xa;&#xa;&#xa;&#xa;&#xa;&#xa;&#xa;&#xa;
                <mxCell id="LlK3BDQDhs1cryQ8cUaz-1" value="int_1" style="ellipse;whiteSpace=wrap;html=1;aspect=fixed;fillColor=#f9f7ed;strokeColor=#36393d;" parent="1" vertex="1">
                    &#xa;                    &#xa;                    &#xa;                    &#xa;                    &#xa;                    &#xa;                    &#xa;                    &#xa;&#xa;&#xa;&#xa;&#xa;&#xa;&#xa;&#xa;
                    <mxGeometry x="450" y="180" width="80" height="80" as="geometry"/>
                    &#xa;                    &#xa;                    &#xa;                    &#xa;                    &#xa;                    &#xa;                    &#xa;                    &#xa;&#xa;&#xa;&#xa;&#xa;&#xa;&#xa;&#xa;
                </mxCell>
                &#xa;                &#xa;                &#xa;                &#xa;                &#xa;                &#xa;                &#xa;                &#xa;&#xa;&#xa;&#xa;&#xa;&#xa;&#xa;&#xa;
                <mxCell id="LlK3BDQDhs1cryQ8cUaz-8" style="edgeStyle=none;rounded=0;jumpStyle=arc;orthogonalLoop=1;jettySize=auto;html=1;fontSize=15;fontColor=#000000;endArrow=classic;endFill=1;strokeWidth=2;" parent="1" source="LlK3BDQDhs1cryQ8cUaz-2" target="LlK3BDQDhs1cryQ8cUaz-3" edge="1">
                    &#xa;                    &#xa;                    &#xa;                    &#xa;                    &#xa;                    &#xa;                    &#xa;                    &#xa;&#xa;&#xa;&#xa;&#xa;&#xa;&#xa;&#xa;
                    <mxGeometry relative="1" as="geometry"/>
                    &#xa;                    &#xa;                    &#xa;                    &#xa;                    &#xa;                    &#xa;                    &#xa;                    &#xa;&#xa;&#xa;&#xa;&#xa;&#xa;&#xa;&#xa;
                </mxCell>
                &#xa;                &#xa;                &#xa;                &#xa;                &#xa;                &#xa;                &#xa;                &#xa;&#xa;&#xa;&#xa;&#xa;&#xa;&#xa;&#xa;
                <mxCell id="LlK3BDQDhs1cryQ8cUaz-11" value="t" style="edgeLabel;html=1;align=center;verticalAlign=middle;resizable=0;points=[];fontSize=15;fontColor=#000000;" parent="LlK3BDQDhs1cryQ8cUaz-8" vertex="1" connectable="0">
                    &#xa;                    &#xa;                    &#xa;                    &#xa;                    &#xa;                    &#xa;                    &#xa;                    &#xa;&#xa;&#xa;&#xa;&#xa;&#xa;&#xa;&#xa;
                    <mxGeometry x="-0.05" y="1" relative="1" as="geometry">
                        &#xa;                        &#xa;                        &#xa;                        &#xa;                        &#xa;                        &#xa;                        &#xa;                        &#xa;&#xa;&#xa;&#xa;&#xa;&#xa;&#xa;&#xa;
                        <mxPoint as="offset"/>
                        &#xa;                        &#xa;                        &#xa;                        &#xa;                        &#xa;                        &#xa;                        &#xa;                        &#xa;&#xa;&#xa;&#xa;&#xa;&#xa;&#xa;&#xa;
                    </mxGeometry>
                    &#xa;                    &#xa;                    &#xa;                    &#xa;                    &#xa;                    &#xa;                    &#xa;                    &#xa;&#xa;&#xa;&#xa;&#xa;&#xa;&#xa;&#xa;
                </mxCell>
                &#xa;                &#xa;                &#xa;                &#xa;                &#xa;                &#xa;                &#xa;                &#xa;&#xa;&#xa;&#xa;&#xa;&#xa;&#xa;&#xa;
                <mxCell id="LlK3BDQDhs1cryQ8cUaz-20" style="rounded=0;jumpStyle=arc;orthogonalLoop=1;jettySize=auto;html=1;fontSize=15;fontColor=#000000;startArrow=none;startFill=0;endArrow=classic;endFill=1;strokeColor=#000000;strokeWidth=2;" parent="1" source="LlK3BDQDhs1cryQ8cUaz-2" target="VolHrzRmZmBoHfwZ25A--2" edge="1">
                    &#xa;                    &#xa;                    &#xa;                    &#xa;                    &#xa;                    &#xa;                    &#xa;                    &#xa;&#xa;&#xa;&#xa;&#xa;&#xa;&#xa;&#xa;
                    <mxGeometry relative="1" as="geometry"/>
                    &#xa;                    &#xa;                    &#xa;                    &#xa;                    &#xa;                    &#xa;                    &#xa;                    &#xa;&#xa;&#xa;&#xa;&#xa;&#xa;&#xa;&#xa;
                </mxCell>
                &#xa;                &#xa;                &#xa;                &#xa;                &#xa;                &#xa;                &#xa;                &#xa;&#xa;&#xa;&#xa;&#xa;&#xa;&#xa;&#xa;
                <mxCell id="LlK3BDQDhs1cryQ8cUaz-2" value="int_2" style="ellipse;whiteSpace=wrap;html=1;aspect=fixed;fillColor=#f9f7ed;strokeColor=#36393d;" parent="1" vertex="1">
                    &#xa;                    &#xa;                    &#xa;                    &#xa;                    &#xa;                    &#xa;                    &#xa;                    &#xa;&#xa;&#xa;&#xa;&#xa;&#xa;&#xa;&#xa;
                    <mxGeometry x="450" y="30" width="80" height="80" as="geometry"/>
                    &#xa;                    &#xa;                    &#xa;                    &#xa;                    &#xa;                    &#xa;                    &#xa;                    &#xa;&#xa;&#xa;&#xa;&#xa;&#xa;&#xa;&#xa;
                </mxCell>
                &#xa;                &#xa;                &#xa;                &#xa;                &#xa;                &#xa;                &#xa;                &#xa;&#xa;&#xa;&#xa;&#xa;&#xa;&#xa;&#xa;
                <mxCell id="LlK3BDQDhs1cryQ8cUaz-9" style="edgeStyle=none;rounded=0;jumpStyle=arc;orthogonalLoop=1;jettySize=auto;html=1;fontSize=15;fontColor=#000000;endArrow=classic;endFill=1;strokeWidth=2;" parent="1" source="LlK3BDQDhs1cryQ8cUaz-3" target="LlK3BDQDhs1cryQ8cUaz-4" edge="1">
                    &#xa;                    &#xa;                    &#xa;                    &#xa;                    &#xa;                    &#xa;                    &#xa;                    &#xa;&#xa;&#xa;&#xa;&#xa;&#xa;&#xa;&#xa;
                    <mxGeometry relative="1" as="geometry"/>
                    &#xa;                    &#xa;                    &#xa;                    &#xa;                    &#xa;                    &#xa;                    &#xa;                    &#xa;&#xa;&#xa;&#xa;&#xa;&#xa;&#xa;&#xa;
                </mxCell>
                &#xa;                &#xa;                &#xa;                &#xa;                &#xa;                &#xa;                &#xa;                &#xa;&#xa;&#xa;&#xa;&#xa;&#xa;&#xa;&#xa;
                <mxCell id="LlK3BDQDhs1cryQ8cUaz-12" value="' '" style="edgeLabel;html=1;align=center;verticalAlign=middle;resizable=0;points=[];fontSize=15;fontColor=#000000;" parent="LlK3BDQDhs1cryQ8cUaz-9" vertex="1" connectable="0">
                    &#xa;                    &#xa;                    &#xa;                    &#xa;                    &#xa;                    &#xa;                    &#xa;                    &#xa;&#xa;&#xa;&#xa;&#xa;&#xa;&#xa;&#xa;
                    <mxGeometry x="-0.2667" y="2" relative="1" as="geometry">
                        &#xa;                        &#xa;                        &#xa;                        &#xa;                        &#xa;                        &#xa;                        &#xa;                        &#xa;&#xa;&#xa;&#xa;&#xa;&#xa;&#xa;&#xa;
                        <mxPoint as="offset"/>
                        &#xa;                        &#xa;                        &#xa;                        &#xa;                        &#xa;                        &#xa;                        &#xa;                        &#xa;&#xa;&#xa;&#xa;&#xa;&#xa;&#xa;&#xa;
                    </mxGeometry>
                    &#xa;                    &#xa;                    &#xa;                    &#xa;                    &#xa;                    &#xa;                    &#xa;                    &#xa;&#xa;&#xa;&#xa;&#xa;&#xa;&#xa;&#xa;
                </mxCell>
                &#xa;                &#xa;                &#xa;                &#xa;                &#xa;                &#xa;                &#xa;                &#xa;&#xa;&#xa;&#xa;&#xa;&#xa;&#xa;&#xa;
                <mxCell id="LlK3BDQDhs1cryQ8cUaz-21" style="edgeStyle=none;rounded=0;jumpStyle=arc;orthogonalLoop=1;jettySize=auto;html=1;fontSize=15;fontColor=#000000;startArrow=none;startFill=0;endArrow=classic;endFill=1;strokeColor=#000000;strokeWidth=2;" parent="1" source="LlK3BDQDhs1cryQ8cUaz-3" target="VolHrzRmZmBoHfwZ25A--2" edge="1">
                    &#xa;                    &#xa;                    &#xa;                    &#xa;                    &#xa;                    &#xa;                    &#xa;                    &#xa;&#xa;&#xa;&#xa;&#xa;&#xa;&#xa;&#xa;
                    <mxGeometry relative="1" as="geometry"/>
                    &#xa;                    &#xa;                    &#xa;                    &#xa;                    &#xa;                    &#xa;                    &#xa;                    &#xa;&#xa;&#xa;&#xa;&#xa;&#xa;&#xa;&#xa;
                </mxCell>
                &#xa;                &#xa;                &#xa;                &#xa;                &#xa;                &#xa;                &#xa;                &#xa;&#xa;&#xa;&#xa;&#xa;&#xa;&#xa;&#xa;
                <mxCell id="LlK3BDQDhs1cryQ8cUaz-3" value="int_3" style="ellipse;whiteSpace=wrap;html=1;aspect=fixed;fillColor=#f9f7ed;strokeColor=#36393d;" parent="1" vertex="1">
                    &#xa;                    &#xa;                    &#xa;                    &#xa;                    &#xa;                    &#xa;                    &#xa;                    &#xa;&#xa;&#xa;&#xa;&#xa;&#xa;&#xa;&#xa;
                    <mxGeometry x="450" y="-100" width="80" height="80" as="geometry"/>
                    &#xa;                    &#xa;                    &#xa;                    &#xa;                    &#xa;                    &#xa;                    &#xa;                    &#xa;&#xa;&#xa;&#xa;&#xa;&#xa;&#xa;&#xa;
                </mxCell>
                &#xa;                &#xa;                &#xa;                &#xa;                &#xa;                &#xa;                &#xa;                &#xa;&#xa;&#xa;&#xa;&#xa;&#xa;&#xa;&#xa;
                <mxCell id="LlK3BDQDhs1cryQ8cUaz-22" style="edgeStyle=none;rounded=0;jumpStyle=arc;orthogonalLoop=1;jettySize=auto;html=1;fontSize=15;fontColor=#000000;startArrow=none;startFill=0;endArrow=classic;endFill=1;strokeColor=#000000;strokeWidth=2;" parent="1" source="LlK3BDQDhs1cryQ8cUaz-4" target="VolHrzRmZmBoHfwZ25A--1" edge="1">
                    &#xa;                    &#xa;                    &#xa;                    &#xa;                    &#xa;                    &#xa;                    &#xa;                    &#xa;&#xa;&#xa;&#xa;&#xa;&#xa;&#xa;&#xa;
                    <mxGeometry relative="1" as="geometry"/>
                    &#xa;                    &#xa;                    &#xa;                    &#xa;                    &#xa;                    &#xa;                    &#xa;                    &#xa;&#xa;&#xa;&#xa;&#xa;&#xa;&#xa;&#xa;
                </mxCell>
                &#xa;                &#xa;                &#xa;                &#xa;                &#xa;                &#xa;                &#xa;                &#xa;&#xa;&#xa;&#xa;&#xa;&#xa;&#xa;&#xa;
                <mxCell id="LlK3BDQDhs1cryQ8cUaz-4" value="int_ok" style="ellipse;whiteSpace=wrap;html=1;aspect=fixed;fillColor=#d0cee2;strokeColor=#56517e;" parent="1" vertex="1">
                    &#xa;                    &#xa;                    &#xa;                    &#xa;                    &#xa;                    &#xa;                    &#xa;                    &#xa;&#xa;&#xa;&#xa;&#xa;&#xa;&#xa;&#xa;
                    <mxGeometry x="310" y="-100" width="80" height="80" as="geometry"/>
                    &#xa;                    &#xa;                    &#xa;                    &#xa;                    &#xa;                    &#xa;                    &#xa;                    &#xa;&#xa;&#xa;&#xa;&#xa;&#xa;&#xa;&#xa;
                </mxCell>
                &#xa;                &#xa;                &#xa;                &#xa;                &#xa;                &#xa;                &#xa;                &#xa;&#xa;&#xa;&#xa;&#xa;&#xa;&#xa;&#xa;
                <mxCell id="LlK3BDQDhs1cryQ8cUaz-25" value="" style="ellipse;whiteSpace=wrap;html=1;aspect=fixed;fillColor=#f9f7ed;strokeColor=#36393d;" parent="1" vertex="1">
                    &#xa;                    &#xa;                    &#xa;                    &#xa;                    &#xa;                    &#xa;                    &#xa;                    &#xa;&#xa;&#xa;&#xa;&#xa;&#xa;&#xa;&#xa;
                    <mxGeometry x="260" y="-470" width="80" height="80" as="geometry"/>
                    &#xa;                    &#xa;                    &#xa;                    &#xa;                    &#xa;                    &#xa;                    &#xa;                    &#xa;&#xa;&#xa;&#xa;&#xa;&#xa;&#xa;&#xa;
                </mxCell>
                &#xa;                &#xa;                &#xa;                &#xa;                &#xa;                &#xa;                &#xa;                &#xa;&#xa;&#xa;&#xa;&#xa;&#xa;&#xa;&#xa;
                <mxCell id="LlK3BDQDhs1cryQ8cUaz-26" value="" style="ellipse;whiteSpace=wrap;html=1;aspect=fixed;fillColor=#d0cee2;strokeColor=#56517e;" parent="1" vertex="1">
                    &#xa;                    &#xa;                    &#xa;                    &#xa;                    &#xa;                    &#xa;                    &#xa;                    &#xa;&#xa;&#xa;&#xa;&#xa;&#xa;&#xa;&#xa;
                    <mxGeometry x="260" y="-360" width="80" height="80" as="geometry"/>
                    &#xa;                    &#xa;                    &#xa;                    &#xa;                    &#xa;                    &#xa;                    &#xa;                    &#xa;&#xa;&#xa;&#xa;&#xa;&#xa;&#xa;&#xa;
                </mxCell>
                &#xa;                &#xa;                &#xa;                &#xa;                &#xa;                &#xa;                &#xa;                &#xa;&#xa;&#xa;&#xa;&#xa;&#xa;&#xa;&#xa;
                <mxCell id="LlK3BDQDhs1cryQ8cUaz-27" value="" style="ellipse;whiteSpace=wrap;html=1;aspect=fixed;fillColor=#ffff88;strokeColor=#36393d;" parent="1" vertex="1">
                    &#xa;                    &#xa;                    &#xa;                    &#xa;                    &#xa;                    &#xa;                    &#xa;                    &#xa;&#xa;&#xa;&#xa;&#xa;&#xa;&#xa;&#xa;
                    <mxGeometry x="260" y="-260" width="80" height="80" as="geometry"/>
                    &#xa;                    &#xa;                    &#xa;                    &#xa;                    &#xa;                    &#xa;                    &#xa;                    &#xa;&#xa;&#xa;&#xa;&#xa;&#xa;&#xa;&#xa;
                </mxCell>
                &#xa;                &#xa;                &#xa;                &#xa;                &#xa;                &#xa;                &#xa;                &#xa;&#xa;&#xa;&#xa;&#xa;&#xa;&#xa;&#xa;
                <mxCell id="LlK3BDQDhs1cryQ8cUaz-28" value="Text" style="text;html=1;strokeColor=none;fillColor=none;align=center;verticalAlign=middle;whiteSpace=wrap;rounded=0;shadow=0;labelBackgroundColor=none;fontSize=15;fontColor=#000000;" parent="1" vertex="1">
                    &#xa;                    &#xa;                    &#xa;                    &#xa;                    &#xa;                    &#xa;                    &#xa;                    &#xa;&#xa;&#xa;&#xa;&#xa;&#xa;&#xa;&#xa;
                    <mxGeometry x="370" y="-440" width="40" height="20" as="geometry"/>
                    &#xa;                    &#xa;                    &#xa;                    &#xa;                    &#xa;                    &#xa;                    &#xa;                    &#xa;&#xa;&#xa;&#xa;&#xa;&#xa;&#xa;&#xa;
                </mxCell>
                &#xa;                &#xa;                &#xa;                &#xa;                &#xa;                &#xa;                &#xa;                &#xa;&#xa;&#xa;&#xa;&#xa;&#xa;&#xa;&#xa;
                <mxCell id="uLCkvGMUGLUAcvmiJcZs-1" value="+" style="ellipse;whiteSpace=wrap;html=1;aspect=fixed;perimeterSpacing=1;shadow=0;strokeWidth=1;fillColor=#d0cee2;strokeColor=#56517e;" parent="1" vertex="1">
                    &#xa;                    &#xa;                    &#xa;                    &#xa;                    &#xa;                    &#xa;                    &#xa;                    &#xa;&#xa;&#xa;&#xa;&#xa;&#xa;&#xa;&#xa;
                    <mxGeometry x="300" y="650" width="80" height="80" as="geometry"/>
                    &#xa;                    &#xa;                    &#xa;                    &#xa;                    &#xa;                    &#xa;                    &#xa;                    &#xa;&#xa;&#xa;&#xa;&#xa;&#xa;&#xa;&#xa;
                </mxCell>
                &#xa;                &#xa;                &#xa;                &#xa;                &#xa;                &#xa;                &#xa;                &#xa;&#xa;&#xa;&#xa;&#xa;&#xa;&#xa;&#xa;
                <mxCell id="uLCkvGMUGLUAcvmiJcZs-2" value="+" style="ellipse;whiteSpace=wrap;html=1;aspect=fixed;perimeterSpacing=1;shadow=0;strokeWidth=1;fillColor=#d0cee2;strokeColor=#56517e;" parent="1" vertex="1">
                    &#xa;                    &#xa;                    &#xa;                    &#xa;                    &#xa;                    &#xa;                    &#xa;                    &#xa;&#xa;&#xa;&#xa;&#xa;&#xa;&#xa;&#xa;
                    <mxGeometry x="300" y="760" width="80" height="80" as="geometry"/>
                    &#xa;                    &#xa;                    &#xa;                    &#xa;                    &#xa;                    &#xa;                    &#xa;                    &#xa;&#xa;&#xa;&#xa;&#xa;&#xa;&#xa;&#xa;
                </mxCell>
                &#xa;                &#xa;                &#xa;                &#xa;                &#xa;                &#xa;                &#xa;                &#xa;&#xa;&#xa;&#xa;&#xa;&#xa;&#xa;&#xa;
                <mxCell id="uLCkvGMUGLUAcvmiJcZs-3" value="+" style="ellipse;whiteSpace=wrap;html=1;aspect=fixed;perimeterSpacing=1;shadow=0;strokeWidth=1;fillColor=#d0cee2;strokeColor=#56517e;" parent="1" vertex="1">
                    &#xa;                    &#xa;                    &#xa;                    &#xa;                    &#xa;                    &#xa;                    &#xa;                    &#xa;&#xa;&#xa;&#xa;&#xa;&#xa;&#xa;&#xa;
                    <mxGeometry x="300" y="860" width="80" height="80" as="geometry"/>
                    &#xa;                    &#xa;                    &#xa;                    &#xa;                    &#xa;                    &#xa;                    &#xa;                    &#xa;&#xa;&#xa;&#xa;&#xa;&#xa;&#xa;&#xa;
                </mxCell>
                &#xa;                &#xa;                &#xa;                &#xa;                &#xa;                &#xa;                &#xa;                &#xa;&#xa;&#xa;&#xa;&#xa;&#xa;&#xa;&#xa;
                <mxCell id="uLCkvGMUGLUAcvmiJcZs-4" value="+" style="ellipse;whiteSpace=wrap;html=1;aspect=fixed;perimeterSpacing=1;shadow=0;strokeWidth=1;fillColor=#d0cee2;strokeColor=#56517e;" parent="1" vertex="1">
                    &#xa;                    &#xa;                    &#xa;                    &#xa;                    &#xa;                    &#xa;                    &#xa;                    &#xa;&#xa;&#xa;&#xa;&#xa;&#xa;&#xa;&#xa;
                    <mxGeometry x="300" y="960" width="80" height="80" as="geometry"/>
                    &#xa;                    &#xa;                    &#xa;                    &#xa;                    &#xa;                    &#xa;                    &#xa;                    &#xa;&#xa;&#xa;&#xa;&#xa;&#xa;&#xa;&#xa;
                </mxCell>
                &#xa;                &#xa;                &#xa;                &#xa;                &#xa;                &#xa;                &#xa;                &#xa;&#xa;&#xa;&#xa;&#xa;&#xa;&#xa;&#xa;
                <mxCell id="uLCkvGMUGLUAcvmiJcZs-6" value="=" style="ellipse;whiteSpace=wrap;html=1;aspect=fixed;perimeterSpacing=1;shadow=0;strokeWidth=1;fillColor=#d0cee2;strokeColor=#56517e;" parent="1" vertex="1">
                    &#xa;                    &#xa;                    &#xa;                    &#xa;                    &#xa;                    &#xa;                    &#xa;                    &#xa;&#xa;&#xa;&#xa;&#xa;&#xa;&#xa;&#xa;
                    <mxGeometry x="300" y="1060" width="80" height="80" as="geometry"/>
                    &#xa;                    &#xa;                    &#xa;                    &#xa;                    &#xa;                    &#xa;                    &#xa;                    &#xa;&#xa;&#xa;&#xa;&#xa;&#xa;&#xa;&#xa;
                </mxCell>
                &#xa;                &#xa;                &#xa;                &#xa;                &#xa;                &#xa;                &#xa;                &#xa;&#xa;&#xa;&#xa;&#xa;&#xa;&#xa;&#xa;
            </root>
            &#xa;            &#xa;            &#xa;            &#xa;            &#xa;            &#xa;            &#xa;            &#xa;&#xa;&#xa;&#xa;&#xa;&#xa;&#xa;&#xa;
        </mxGraphModel>
        &#xa;        &#xa;        &#xa;        &#xa;        &#xa;        &#xa;        &#xa;        &#xa;&#xa;&#xa;&#xa;&#xa;&#xa;&#xa;&#xa;
    </diagram>
    <diagram name="语法分析" id="tieinT0Mrb9ZAcYzzkTn">
        <mxGraphModel dx="1414" dy="710" grid="1" gridSize="10" guides="1" tooltips="1" connect="1" arrows="1" fold="1" page="1" pageScale="1" pageWidth="827" pageHeight="1169" math="0" shadow="0">
            <root>
                <mxCell id="R0EkGY-fIk5xTWQmZQFN-0"/>
                <mxCell id="R0EkGY-fIk5xTWQmZQFN-1" parent="R0EkGY-fIk5xTWQmZQFN-0"/>
                <mxCell id="fdqoYrM8p6EwCbm7jR6N-2" value="" style="rounded=0;orthogonalLoop=1;jettySize=auto;html=1;" parent="R0EkGY-fIk5xTWQmZQFN-1" source="fdqoYrM8p6EwCbm7jR6N-0" target="fdqoYrM8p6EwCbm7jR6N-5" edge="1">
                    <mxGeometry relative="1" as="geometry"/>
                </mxCell>
                <mxCell id="fdqoYrM8p6EwCbm7jR6N-0" value="type: program&lt;br&gt;text:&lt;br&gt;scope:" style="ellipse;whiteSpace=wrap;html=1;fillColor=#eeeeee;strokeColor=#36393d;" parent="R0EkGY-fIk5xTWQmZQFN-1" vertex="1">
                    <mxGeometry x="450" y="100" width="120" height="80" as="geometry"/>
                </mxCell>
                <mxCell id="fdqoYrM8p6EwCbm7jR6N-4" value="" style="edgeStyle=none;rounded=0;orthogonalLoop=1;jettySize=auto;html=1;" parent="R0EkGY-fIk5xTWQmZQFN-1" source="fdqoYrM8p6EwCbm7jR6N-1" target="fdqoYrM8p6EwCbm7jR6N-3" edge="1">
                    <mxGeometry relative="1" as="geometry"/>
                </mxCell>
                <mxCell id="fdqoYrM8p6EwCbm7jR6N-1" value="type: blockStm&lt;br&gt;text:&lt;br&gt;scope:" style="ellipse;whiteSpace=wrap;html=1;fillColor=#eeeeee;strokeColor=#36393d;" parent="R0EkGY-fIk5xTWQmZQFN-1" vertex="1">
                    <mxGeometry x="190" y="370" width="120" height="80" as="geometry"/>
                </mxCell>
                <mxCell id="fdqoYrM8p6EwCbm7jR6N-3" value="type: statements&lt;br&gt;text:&lt;br&gt;scope:" style="ellipse;whiteSpace=wrap;html=1;fillColor=#eeeeee;strokeColor=#36393d;" parent="R0EkGY-fIk5xTWQmZQFN-1" vertex="1">
                    <mxGeometry x="190" y="504.5" width="120" height="80" as="geometry"/>
                </mxCell>
                <mxCell id="fdqoYrM8p6EwCbm7jR6N-6" style="edgeStyle=none;rounded=0;orthogonalLoop=1;jettySize=auto;html=1;" parent="R0EkGY-fIk5xTWQmZQFN-1" source="fdqoYrM8p6EwCbm7jR6N-5" target="fdqoYrM8p6EwCbm7jR6N-1" edge="1">
                    <mxGeometry relative="1" as="geometry"/>
                </mxCell>
                <mxCell id="fdqoYrM8p6EwCbm7jR6N-9" style="edgeStyle=none;rounded=0;orthogonalLoop=1;jettySize=auto;html=1;" parent="R0EkGY-fIk5xTWQmZQFN-1" source="fdqoYrM8p6EwCbm7jR6N-5" target="fdqoYrM8p6EwCbm7jR6N-8" edge="1">
                    <mxGeometry relative="1" as="geometry"/>
                </mxCell>
                <mxCell id="fdqoYrM8p6EwCbm7jR6N-15" style="edgeStyle=none;rounded=0;orthogonalLoop=1;jettySize=auto;html=1;" parent="R0EkGY-fIk5xTWQmZQFN-1" source="fdqoYrM8p6EwCbm7jR6N-5" target="fdqoYrM8p6EwCbm7jR6N-14" edge="1">
                    <mxGeometry relative="1" as="geometry"/>
                </mxCell>
                <mxCell id="fdqoYrM8p6EwCbm7jR6N-19" style="edgeStyle=none;rounded=0;orthogonalLoop=1;jettySize=auto;html=1;" parent="R0EkGY-fIk5xTWQmZQFN-1" source="fdqoYrM8p6EwCbm7jR6N-5" target="fdqoYrM8p6EwCbm7jR6N-18" edge="1">
                    <mxGeometry relative="1" as="geometry"/>
                </mxCell>
                <mxCell id="fdqoYrM8p6EwCbm7jR6N-5" value="type: statements&lt;br&gt;text:&lt;br&gt;scope:" style="ellipse;whiteSpace=wrap;html=1;fillColor=#eeeeee;strokeColor=#36393d;" parent="R0EkGY-fIk5xTWQmZQFN-1" vertex="1">
                    <mxGeometry x="450" y="240" width="120" height="80" as="geometry"/>
                </mxCell>
                <mxCell id="fdqoYrM8p6EwCbm7jR6N-11" value="" style="edgeStyle=none;rounded=0;orthogonalLoop=1;jettySize=auto;html=1;" parent="R0EkGY-fIk5xTWQmZQFN-1" source="fdqoYrM8p6EwCbm7jR6N-8" target="fdqoYrM8p6EwCbm7jR6N-10" edge="1">
                    <mxGeometry relative="1" as="geometry"/>
                </mxCell>
                <mxCell id="fdqoYrM8p6EwCbm7jR6N-8" value="type: statement&lt;br&gt;text:&lt;br&gt;scope:" style="ellipse;whiteSpace=wrap;html=1;fillColor=#eeeeee;strokeColor=#36393d;" parent="R0EkGY-fIk5xTWQmZQFN-1" vertex="1">
                    <mxGeometry x="450" y="370" width="120" height="80" as="geometry"/>
                </mxCell>
                <mxCell id="fdqoYrM8p6EwCbm7jR6N-23" style="edgeStyle=none;rounded=0;orthogonalLoop=1;jettySize=auto;html=1;" parent="R0EkGY-fIk5xTWQmZQFN-1" source="fdqoYrM8p6EwCbm7jR6N-10" target="fdqoYrM8p6EwCbm7jR6N-22" edge="1">
                    <mxGeometry relative="1" as="geometry"/>
                </mxCell>
                <mxCell id="fdqoYrM8p6EwCbm7jR6N-10" value="type: declare&lt;br&gt;text:&lt;br&gt;scope:" style="ellipse;whiteSpace=wrap;html=1;fillColor=#eeeeee;strokeColor=#36393d;" parent="R0EkGY-fIk5xTWQmZQFN-1" vertex="1">
                    <mxGeometry x="450" y="504.5" width="120" height="80" as="geometry"/>
                </mxCell>
                <mxCell id="fdqoYrM8p6EwCbm7jR6N-17" value="" style="edgeStyle=none;rounded=0;orthogonalLoop=1;jettySize=auto;html=1;" parent="R0EkGY-fIk5xTWQmZQFN-1" source="fdqoYrM8p6EwCbm7jR6N-14" target="fdqoYrM8p6EwCbm7jR6N-16" edge="1">
                    <mxGeometry relative="1" as="geometry"/>
                </mxCell>
                <mxCell id="fdqoYrM8p6EwCbm7jR6N-14" value="type: statement&lt;br&gt;text:&lt;br&gt;scope:" style="ellipse;whiteSpace=wrap;html=1;fillColor=#eeeeee;strokeColor=#36393d;" parent="R0EkGY-fIk5xTWQmZQFN-1" vertex="1">
                    <mxGeometry x="910" y="380" width="120" height="80" as="geometry"/>
                </mxCell>
                <mxCell id="fdqoYrM8p6EwCbm7jR6N-36" value="" style="edgeStyle=none;rounded=0;orthogonalLoop=1;jettySize=auto;html=1;" parent="R0EkGY-fIk5xTWQmZQFN-1" source="fdqoYrM8p6EwCbm7jR6N-16" target="fdqoYrM8p6EwCbm7jR6N-35" edge="1">
                    <mxGeometry relative="1" as="geometry"/>
                </mxCell>
                <mxCell id="fdqoYrM8p6EwCbm7jR6N-16" value="type: exprStm&lt;br&gt;text:&lt;br&gt;scope:" style="ellipse;whiteSpace=wrap;html=1;fillColor=#eeeeee;strokeColor=#36393d;" parent="R0EkGY-fIk5xTWQmZQFN-1" vertex="1">
                    <mxGeometry x="910" y="515" width="120" height="80" as="geometry"/>
                </mxCell>
                <mxCell id="fdqoYrM8p6EwCbm7jR6N-21" value="" style="edgeStyle=none;rounded=0;orthogonalLoop=1;jettySize=auto;html=1;" parent="R0EkGY-fIk5xTWQmZQFN-1" source="fdqoYrM8p6EwCbm7jR6N-18" target="fdqoYrM8p6EwCbm7jR6N-20" edge="1">
                    <mxGeometry relative="1" as="geometry"/>
                </mxCell>
                <mxCell id="fdqoYrM8p6EwCbm7jR6N-18" value="type: statement&lt;br&gt;text:&lt;br&gt;scope:" style="ellipse;whiteSpace=wrap;html=1;fillColor=#eeeeee;strokeColor=#36393d;" parent="R0EkGY-fIk5xTWQmZQFN-1" vertex="1">
                    <mxGeometry x="1380" y="390" width="120" height="80" as="geometry"/>
                </mxCell>
                <mxCell id="fdqoYrM8p6EwCbm7jR6N-40" style="edgeStyle=none;rounded=0;orthogonalLoop=1;jettySize=auto;html=1;" parent="R0EkGY-fIk5xTWQmZQFN-1" source="fdqoYrM8p6EwCbm7jR6N-20" target="fdqoYrM8p6EwCbm7jR6N-39" edge="1">
                    <mxGeometry relative="1" as="geometry"/>
                </mxCell>
                <mxCell id="fdqoYrM8p6EwCbm7jR6N-42" style="edgeStyle=none;rounded=0;orthogonalLoop=1;jettySize=auto;html=1;" parent="R0EkGY-fIk5xTWQmZQFN-1" source="fdqoYrM8p6EwCbm7jR6N-20" target="fdqoYrM8p6EwCbm7jR6N-41" edge="1">
                    <mxGeometry relative="1" as="geometry"/>
                </mxCell>
                <mxCell id="fdqoYrM8p6EwCbm7jR6N-44" style="edgeStyle=none;rounded=0;orthogonalLoop=1;jettySize=auto;html=1;" parent="R0EkGY-fIk5xTWQmZQFN-1" source="fdqoYrM8p6EwCbm7jR6N-20" target="fdqoYrM8p6EwCbm7jR6N-43" edge="1">
                    <mxGeometry relative="1" as="geometry"/>
                </mxCell>
                <mxCell id="fdqoYrM8p6EwCbm7jR6N-20" value="type: assignStm&lt;br&gt;text:&lt;br&gt;scope:" style="ellipse;whiteSpace=wrap;html=1;fillColor=#eeeeee;strokeColor=#36393d;" parent="R0EkGY-fIk5xTWQmZQFN-1" vertex="1">
                    <mxGeometry x="1380" y="530" width="120" height="80" as="geometry"/>
                </mxCell>
                <mxCell id="fdqoYrM8p6EwCbm7jR6N-25" style="edgeStyle=none;rounded=0;orthogonalLoop=1;jettySize=auto;html=1;" parent="R0EkGY-fIk5xTWQmZQFN-1" source="fdqoYrM8p6EwCbm7jR6N-22" target="fdqoYrM8p6EwCbm7jR6N-24" edge="1">
                    <mxGeometry relative="1" as="geometry"/>
                </mxCell>
                <mxCell id="fdqoYrM8p6EwCbm7jR6N-27" style="edgeStyle=none;rounded=0;orthogonalLoop=1;jettySize=auto;html=1;" parent="R0EkGY-fIk5xTWQmZQFN-1" source="fdqoYrM8p6EwCbm7jR6N-22" target="fdqoYrM8p6EwCbm7jR6N-26" edge="1">
                    <mxGeometry relative="1" as="geometry"/>
                </mxCell>
                <mxCell id="fdqoYrM8p6EwCbm7jR6N-28" value="" style="edgeStyle=none;rounded=0;orthogonalLoop=1;jettySize=auto;html=1;" parent="R0EkGY-fIk5xTWQmZQFN-1" source="fdqoYrM8p6EwCbm7jR6N-22" target="fdqoYrM8p6EwCbm7jR6N-26" edge="1">
                    <mxGeometry relative="1" as="geometry"/>
                </mxCell>
                <mxCell id="fdqoYrM8p6EwCbm7jR6N-30" style="edgeStyle=none;rounded=0;orthogonalLoop=1;jettySize=auto;html=1;" parent="R0EkGY-fIk5xTWQmZQFN-1" source="fdqoYrM8p6EwCbm7jR6N-22" target="fdqoYrM8p6EwCbm7jR6N-29" edge="1">
                    <mxGeometry relative="1" as="geometry"/>
                </mxCell>
                <mxCell id="fdqoYrM8p6EwCbm7jR6N-32" style="edgeStyle=none;rounded=0;orthogonalLoop=1;jettySize=auto;html=1;" parent="R0EkGY-fIk5xTWQmZQFN-1" source="fdqoYrM8p6EwCbm7jR6N-22" target="fdqoYrM8p6EwCbm7jR6N-31" edge="1">
                    <mxGeometry relative="1" as="geometry"/>
                </mxCell>
                <mxCell id="fdqoYrM8p6EwCbm7jR6N-22" value="type: varDeclare&lt;br&gt;text:&lt;br&gt;scope:" style="ellipse;whiteSpace=wrap;html=1;fillColor=#eeeeee;strokeColor=#36393d;" parent="R0EkGY-fIk5xTWQmZQFN-1" vertex="1">
                    <mxGeometry x="450" y="640" width="120" height="80" as="geometry"/>
                </mxCell>
                <mxCell id="fdqoYrM8p6EwCbm7jR6N-24" value="type: type&lt;br&gt;text: &quot;int&quot;&lt;br&gt;scope:" style="ellipse;whiteSpace=wrap;html=1;fillColor=#eeeeee;strokeColor=#36393d;" parent="R0EkGY-fIk5xTWQmZQFN-1" vertex="1">
                    <mxGeometry x="280" y="760" width="120" height="80" as="geometry"/>
                </mxCell>
                <mxCell id="fdqoYrM8p6EwCbm7jR6N-26" value="type: id&lt;br&gt;text: &quot;a&quot;&lt;br&gt;scope:" style="ellipse;whiteSpace=wrap;html=1;fillColor=#eeeeee;strokeColor=#36393d;" parent="R0EkGY-fIk5xTWQmZQFN-1" vertex="1">
                    <mxGeometry x="420" y="760" width="120" height="80" as="geometry"/>
                </mxCell>
                <mxCell id="fdqoYrM8p6EwCbm7jR6N-29" value="type: assign&lt;br&gt;text: &quot;=&quot;&lt;br&gt;scope:" style="ellipse;whiteSpace=wrap;html=1;fillColor=#eeeeee;strokeColor=#36393d;" parent="R0EkGY-fIk5xTWQmZQFN-1" vertex="1">
                    <mxGeometry x="560" y="760" width="120" height="80" as="geometry"/>
                </mxCell>
                <mxCell id="fdqoYrM8p6EwCbm7jR6N-38" style="edgeStyle=none;rounded=0;orthogonalLoop=1;jettySize=auto;html=1;" parent="R0EkGY-fIk5xTWQmZQFN-1" source="fdqoYrM8p6EwCbm7jR6N-31" target="fdqoYrM8p6EwCbm7jR6N-37" edge="1">
                    <mxGeometry relative="1" as="geometry"/>
                </mxCell>
                <mxCell id="fdqoYrM8p6EwCbm7jR6N-31" value="type: exprStm&lt;br&gt;text:&lt;br&gt;scope:" style="ellipse;whiteSpace=wrap;html=1;fillColor=#eeeeee;strokeColor=#36393d;" parent="R0EkGY-fIk5xTWQmZQFN-1" vertex="1">
                    <mxGeometry x="710" y="760" width="120" height="80" as="geometry"/>
                </mxCell>
                <mxCell id="fdqoYrM8p6EwCbm7jR6N-35" value="type: additive&lt;br&gt;text:&lt;br&gt;scope:" style="ellipse;whiteSpace=wrap;html=1;fillColor=#eeeeee;strokeColor=#36393d;" parent="R0EkGY-fIk5xTWQmZQFN-1" vertex="1">
                    <mxGeometry x="910" y="640" width="120" height="80" as="geometry"/>
                </mxCell>
                <mxCell id="fdqoYrM8p6EwCbm7jR6N-37" value="type: additive&lt;br&gt;text:&lt;br&gt;scope:" style="ellipse;whiteSpace=wrap;html=1;fillColor=#eeeeee;strokeColor=#36393d;" parent="R0EkGY-fIk5xTWQmZQFN-1" vertex="1">
                    <mxGeometry x="710" y="880" width="120" height="80" as="geometry"/>
                </mxCell>
                <mxCell id="fdqoYrM8p6EwCbm7jR6N-39" value="type: id&lt;br&gt;text: &quot;a&quot;&lt;br&gt;scope:" style="ellipse;whiteSpace=wrap;html=1;fillColor=#eeeeee;strokeColor=#36393d;" parent="R0EkGY-fIk5xTWQmZQFN-1" vertex="1">
                    <mxGeometry x="1240" y="640" width="120" height="80" as="geometry"/>
                </mxCell>
                <mxCell id="fdqoYrM8p6EwCbm7jR6N-41" value="type: assign&lt;br&gt;text: &quot;=&quot;&lt;br&gt;scope:" style="ellipse;whiteSpace=wrap;html=1;fillColor=#eeeeee;strokeColor=#36393d;" parent="R0EkGY-fIk5xTWQmZQFN-1" vertex="1">
                    <mxGeometry x="1380" y="640" width="120" height="80" as="geometry"/>
                </mxCell>
                <mxCell id="fdqoYrM8p6EwCbm7jR6N-43" value="type: exprStm&lt;br&gt;text:&lt;br&gt;scope:" style="ellipse;whiteSpace=wrap;html=1;fillColor=#eeeeee;strokeColor=#36393d;" parent="R0EkGY-fIk5xTWQmZQFN-1" vertex="1">
                    <mxGeometry x="1530" y="640" width="120" height="80" as="geometry"/>
                </mxCell>
            </root>
        </mxGraphModel>
    </diagram>
    <diagram name="作用域" id="xENKP4qPYfOBPC5jw4ED">
        &#xa;
        <mxGraphModel dx="1414" dy="710" grid="1" gridSize="10" guides="1" tooltips="1" connect="1" arrows="1" fold="1" page="0" pageScale="1" pageWidth="827" pageHeight="1169" math="0" shadow="0">
            &#xa;
            <root>
                &#xa;
                <mxCell id="aBsPHc4NuhL00feyLAkd-0"/>
                &#xa;
                <mxCell id="aBsPHc4NuhL00feyLAkd-1" parent="aBsPHc4NuhL00feyLAkd-0"/>
                &#xa;
                <mxCell id="q8knXYj4i9KtQvOT9DbQ-0" value="" style="rounded=0;orthogonalLoop=1;jettySize=auto;html=1;" parent="aBsPHc4NuhL00feyLAkd-1" source="q8knXYj4i9KtQvOT9DbQ-1" target="q8knXYj4i9KtQvOT9DbQ-9" edge="1">
                    &#xa;
                    <mxGeometry relative="1" as="geometry"/>
                    &#xa;
                </mxCell>
                &#xa;
                <mxCell id="q8knXYj4i9KtQvOT9DbQ-1" value="type: program&lt;br&gt;text:&lt;br&gt;scope:" style="ellipse;whiteSpace=wrap;html=1;fillColor=#eeeeee;strokeColor=#36393d;" parent="aBsPHc4NuhL00feyLAkd-1" vertex="1">
                    &#xa;
                    <mxGeometry x="450" y="100" width="120" height="80" as="geometry"/>
                    &#xa;
                </mxCell>
                &#xa;
                <mxCell id="q8knXYj4i9KtQvOT9DbQ-2" value="" style="edgeStyle=none;rounded=0;orthogonalLoop=1;jettySize=auto;html=1;" parent="aBsPHc4NuhL00feyLAkd-1" source="q8knXYj4i9KtQvOT9DbQ-3" target="q8knXYj4i9KtQvOT9DbQ-4" edge="1">
                    &#xa;
                    <mxGeometry relative="1" as="geometry"/>
                    &#xa;
                </mxCell>
                &#xa;
                <mxCell id="q8knXYj4i9KtQvOT9DbQ-3" value="type: blockStm&lt;br&gt;text:&lt;br&gt;scope:" style="ellipse;whiteSpace=wrap;html=1;fillColor=#eeeeee;strokeColor=#36393d;" parent="aBsPHc4NuhL00feyLAkd-1" vertex="1">
                    &#xa;
                    <mxGeometry x="190" y="370" width="120" height="80" as="geometry"/>
                    &#xa;
                </mxCell>
                &#xa;
                <mxCell id="q8knXYj4i9KtQvOT9DbQ-4" value="type: statements&lt;br&gt;text:&lt;br&gt;scope:" style="ellipse;whiteSpace=wrap;html=1;fillColor=#eeeeee;strokeColor=#36393d;" parent="aBsPHc4NuhL00feyLAkd-1" vertex="1">
                    &#xa;
                    <mxGeometry x="190" y="504.5" width="120" height="80" as="geometry"/>
                    &#xa;
                </mxCell>
                &#xa;
                <mxCell id="q8knXYj4i9KtQvOT9DbQ-5" style="edgeStyle=none;rounded=0;orthogonalLoop=1;jettySize=auto;html=1;" parent="aBsPHc4NuhL00feyLAkd-1" source="q8knXYj4i9KtQvOT9DbQ-9" target="q8knXYj4i9KtQvOT9DbQ-3" edge="1">
                    &#xa;
                    <mxGeometry relative="1" as="geometry"/>
                    &#xa;
                </mxCell>
                &#xa;
                <mxCell id="q8knXYj4i9KtQvOT9DbQ-6" style="edgeStyle=none;rounded=0;orthogonalLoop=1;jettySize=auto;html=1;" parent="aBsPHc4NuhL00feyLAkd-1" source="q8knXYj4i9KtQvOT9DbQ-9" target="q8knXYj4i9KtQvOT9DbQ-11" edge="1">
                    &#xa;
                    <mxGeometry relative="1" as="geometry"/>
                    &#xa;
                </mxCell>
                &#xa;
                <mxCell id="q8knXYj4i9KtQvOT9DbQ-7" style="edgeStyle=none;rounded=0;orthogonalLoop=1;jettySize=auto;html=1;" parent="aBsPHc4NuhL00feyLAkd-1" source="q8knXYj4i9KtQvOT9DbQ-9" target="q8knXYj4i9KtQvOT9DbQ-15" edge="1">
                    &#xa;
                    <mxGeometry relative="1" as="geometry"/>
                    &#xa;
                </mxCell>
                &#xa;
                <mxCell id="q8knXYj4i9KtQvOT9DbQ-8" style="edgeStyle=none;rounded=0;orthogonalLoop=1;jettySize=auto;html=1;" parent="aBsPHc4NuhL00feyLAkd-1" source="q8knXYj4i9KtQvOT9DbQ-9" target="q8knXYj4i9KtQvOT9DbQ-19" edge="1">
                    &#xa;
                    <mxGeometry relative="1" as="geometry"/>
                    &#xa;
                </mxCell>
                &#xa;
                <mxCell id="q8knXYj4i9KtQvOT9DbQ-9" value="type: statements&lt;br&gt;text:&lt;br&gt;scope:" style="ellipse;whiteSpace=wrap;html=1;fillColor=#eeeeee;strokeColor=#36393d;" parent="aBsPHc4NuhL00feyLAkd-1" vertex="1">
                    &#xa;
                    <mxGeometry x="450" y="240" width="120" height="80" as="geometry"/>
                    &#xa;
                </mxCell>
                &#xa;
                <mxCell id="q8knXYj4i9KtQvOT9DbQ-10" value="" style="edgeStyle=none;rounded=0;orthogonalLoop=1;jettySize=auto;html=1;" parent="aBsPHc4NuhL00feyLAkd-1" source="q8knXYj4i9KtQvOT9DbQ-11" target="q8knXYj4i9KtQvOT9DbQ-13" edge="1">
                    &#xa;
                    <mxGeometry relative="1" as="geometry"/>
                    &#xa;
                </mxCell>
                &#xa;
                <mxCell id="q8knXYj4i9KtQvOT9DbQ-11" value="type: statement&lt;br&gt;text:&lt;br&gt;scope:" style="ellipse;whiteSpace=wrap;html=1;fillColor=#eeeeee;strokeColor=#36393d;" parent="aBsPHc4NuhL00feyLAkd-1" vertex="1">
                    &#xa;
                    <mxGeometry x="450" y="370" width="120" height="80" as="geometry"/>
                    &#xa;
                </mxCell>
                &#xa;
                <mxCell id="q8knXYj4i9KtQvOT9DbQ-12" style="edgeStyle=none;rounded=0;orthogonalLoop=1;jettySize=auto;html=1;" parent="aBsPHc4NuhL00feyLAkd-1" source="q8knXYj4i9KtQvOT9DbQ-13" target="q8knXYj4i9KtQvOT9DbQ-29" edge="1">
                    &#xa;
                    <mxGeometry relative="1" as="geometry"/>
                    &#xa;
                </mxCell>
                &#xa;
                <mxCell id="q8knXYj4i9KtQvOT9DbQ-13" value="type: declare&lt;br&gt;text:&lt;br&gt;scope:" style="ellipse;whiteSpace=wrap;html=1;fillColor=#eeeeee;strokeColor=#36393d;" parent="aBsPHc4NuhL00feyLAkd-1" vertex="1">
                    &#xa;
                    <mxGeometry x="450" y="504.5" width="120" height="80" as="geometry"/>
                    &#xa;
                </mxCell>
                &#xa;
                <mxCell id="q8knXYj4i9KtQvOT9DbQ-14" value="" style="edgeStyle=none;rounded=0;orthogonalLoop=1;jettySize=auto;html=1;" parent="aBsPHc4NuhL00feyLAkd-1" source="q8knXYj4i9KtQvOT9DbQ-15" target="q8knXYj4i9KtQvOT9DbQ-17" edge="1">
                    &#xa;
                    <mxGeometry relative="1" as="geometry"/>
                    &#xa;
                </mxCell>
                &#xa;
                <mxCell id="q8knXYj4i9KtQvOT9DbQ-15" value="type: statement&lt;br&gt;text:&lt;br&gt;scope:" style="ellipse;whiteSpace=wrap;html=1;fillColor=#eeeeee;strokeColor=#36393d;" parent="aBsPHc4NuhL00feyLAkd-1" vertex="1">
                    &#xa;
                    <mxGeometry x="910" y="380" width="120" height="80" as="geometry"/>
                    &#xa;
                </mxCell>
                &#xa;
                <mxCell id="q8knXYj4i9KtQvOT9DbQ-16" value="" style="edgeStyle=none;rounded=0;orthogonalLoop=1;jettySize=auto;html=1;" parent="aBsPHc4NuhL00feyLAkd-1" source="q8knXYj4i9KtQvOT9DbQ-17" target="q8knXYj4i9KtQvOT9DbQ-35" edge="1">
                    &#xa;
                    <mxGeometry relative="1" as="geometry"/>
                    &#xa;
                </mxCell>
                &#xa;
                <mxCell id="q8knXYj4i9KtQvOT9DbQ-17" value="type: exprStm&lt;br&gt;text:&lt;br&gt;scope:" style="ellipse;whiteSpace=wrap;html=1;fillColor=#eeeeee;strokeColor=#36393d;" parent="aBsPHc4NuhL00feyLAkd-1" vertex="1">
                    &#xa;
                    <mxGeometry x="910" y="515" width="120" height="80" as="geometry"/>
                    &#xa;
                </mxCell>
                &#xa;
                <mxCell id="q8knXYj4i9KtQvOT9DbQ-18" value="" style="edgeStyle=none;rounded=0;orthogonalLoop=1;jettySize=auto;html=1;" parent="aBsPHc4NuhL00feyLAkd-1" source="q8knXYj4i9KtQvOT9DbQ-19" target="q8knXYj4i9KtQvOT9DbQ-23" edge="1">
                    &#xa;
                    <mxGeometry relative="1" as="geometry"/>
                    &#xa;
                </mxCell>
                &#xa;
                <mxCell id="q8knXYj4i9KtQvOT9DbQ-19" value="type: statement&lt;br&gt;text:&lt;br&gt;scope:" style="ellipse;whiteSpace=wrap;html=1;fillColor=#eeeeee;strokeColor=#36393d;" parent="aBsPHc4NuhL00feyLAkd-1" vertex="1">
                    &#xa;
                    <mxGeometry x="1380" y="390" width="120" height="80" as="geometry"/>
                    &#xa;
                </mxCell>
                &#xa;
                <mxCell id="q8knXYj4i9KtQvOT9DbQ-20" style="edgeStyle=none;rounded=0;orthogonalLoop=1;jettySize=auto;html=1;" parent="aBsPHc4NuhL00feyLAkd-1" source="q8knXYj4i9KtQvOT9DbQ-23" target="q8knXYj4i9KtQvOT9DbQ-37" edge="1">
                    &#xa;
                    <mxGeometry relative="1" as="geometry"/>
                    &#xa;
                </mxCell>
                &#xa;
                <mxCell id="q8knXYj4i9KtQvOT9DbQ-21" style="edgeStyle=none;rounded=0;orthogonalLoop=1;jettySize=auto;html=1;" parent="aBsPHc4NuhL00feyLAkd-1" source="q8knXYj4i9KtQvOT9DbQ-23" target="q8knXYj4i9KtQvOT9DbQ-38" edge="1">
                    &#xa;
                    <mxGeometry relative="1" as="geometry"/>
                    &#xa;
                </mxCell>
                &#xa;
                <mxCell id="q8knXYj4i9KtQvOT9DbQ-22" style="edgeStyle=none;rounded=0;orthogonalLoop=1;jettySize=auto;html=1;" parent="aBsPHc4NuhL00feyLAkd-1" source="q8knXYj4i9KtQvOT9DbQ-23" target="q8knXYj4i9KtQvOT9DbQ-39" edge="1">
                    &#xa;
                    <mxGeometry relative="1" as="geometry"/>
                    &#xa;
                </mxCell>
                &#xa;
                <mxCell id="q8knXYj4i9KtQvOT9DbQ-23" value="type: assignStm&lt;br&gt;text:&lt;br&gt;scope:" style="ellipse;whiteSpace=wrap;html=1;fillColor=#eeeeee;strokeColor=#36393d;" parent="aBsPHc4NuhL00feyLAkd-1" vertex="1">
                    &#xa;
                    <mxGeometry x="1380" y="530" width="120" height="80" as="geometry"/>
                    &#xa;
                </mxCell>
                &#xa;
                <mxCell id="q8knXYj4i9KtQvOT9DbQ-24" style="edgeStyle=none;rounded=0;orthogonalLoop=1;jettySize=auto;html=1;" parent="aBsPHc4NuhL00feyLAkd-1" source="q8knXYj4i9KtQvOT9DbQ-29" target="q8knXYj4i9KtQvOT9DbQ-30" edge="1">
                    &#xa;
                    <mxGeometry relative="1" as="geometry"/>
                    &#xa;
                </mxCell>
                &#xa;
                <mxCell id="q8knXYj4i9KtQvOT9DbQ-25" style="edgeStyle=none;rounded=0;orthogonalLoop=1;jettySize=auto;html=1;" parent="aBsPHc4NuhL00feyLAkd-1" source="q8knXYj4i9KtQvOT9DbQ-29" target="q8knXYj4i9KtQvOT9DbQ-31" edge="1">
                    &#xa;
                    <mxGeometry relative="1" as="geometry"/>
                    &#xa;
                </mxCell>
                &#xa;
                <mxCell id="q8knXYj4i9KtQvOT9DbQ-26" value="" style="edgeStyle=none;rounded=0;orthogonalLoop=1;jettySize=auto;html=1;" parent="aBsPHc4NuhL00feyLAkd-1" source="q8knXYj4i9KtQvOT9DbQ-29" target="q8knXYj4i9KtQvOT9DbQ-31" edge="1">
                    &#xa;
                    <mxGeometry relative="1" as="geometry"/>
                    &#xa;
                </mxCell>
                &#xa;
                <mxCell id="q8knXYj4i9KtQvOT9DbQ-27" style="edgeStyle=none;rounded=0;orthogonalLoop=1;jettySize=auto;html=1;" parent="aBsPHc4NuhL00feyLAkd-1" source="q8knXYj4i9KtQvOT9DbQ-29" target="q8knXYj4i9KtQvOT9DbQ-32" edge="1">
                    &#xa;
                    <mxGeometry relative="1" as="geometry"/>
                    &#xa;
                </mxCell>
                &#xa;
                <mxCell id="q8knXYj4i9KtQvOT9DbQ-28" style="edgeStyle=none;rounded=0;orthogonalLoop=1;jettySize=auto;html=1;" parent="aBsPHc4NuhL00feyLAkd-1" source="q8knXYj4i9KtQvOT9DbQ-29" target="q8knXYj4i9KtQvOT9DbQ-34" edge="1">
                    &#xa;
                    <mxGeometry relative="1" as="geometry"/>
                    &#xa;
                </mxCell>
                &#xa;
                <mxCell id="q8knXYj4i9KtQvOT9DbQ-29" value="type: varDeclare&lt;br&gt;text:&lt;br&gt;scope:" style="ellipse;whiteSpace=wrap;html=1;fillColor=#eeeeee;strokeColor=#36393d;" parent="aBsPHc4NuhL00feyLAkd-1" vertex="1">
                    &#xa;
                    <mxGeometry x="450" y="640" width="120" height="80" as="geometry"/>
                    &#xa;
                </mxCell>
                &#xa;
                <mxCell id="q8knXYj4i9KtQvOT9DbQ-30" value="type: type&lt;br&gt;text: &quot;int&quot;&lt;br&gt;scope:" style="ellipse;whiteSpace=wrap;html=1;fillColor=#eeeeee;strokeColor=#36393d;" parent="aBsPHc4NuhL00feyLAkd-1" vertex="1">
                    &#xa;
                    <mxGeometry x="280" y="760" width="120" height="80" as="geometry"/>
                    &#xa;
                </mxCell>
                &#xa;
                <mxCell id="q8knXYj4i9KtQvOT9DbQ-31" value="type: id&lt;br&gt;text: &quot;a&quot;&lt;br&gt;scope:" style="ellipse;whiteSpace=wrap;html=1;fillColor=#eeeeee;strokeColor=#36393d;" parent="aBsPHc4NuhL00feyLAkd-1" vertex="1">
                    &#xa;
                    <mxGeometry x="420" y="760" width="120" height="80" as="geometry"/>
                    &#xa;
                </mxCell>
                &#xa;
                <mxCell id="q8knXYj4i9KtQvOT9DbQ-32" value="type: assign&lt;br&gt;text: &quot;=&quot;&lt;br&gt;scope:" style="ellipse;whiteSpace=wrap;html=1;fillColor=#eeeeee;strokeColor=#36393d;" parent="aBsPHc4NuhL00feyLAkd-1" vertex="1">
                    &#xa;
                    <mxGeometry x="560" y="760" width="120" height="80" as="geometry"/>
                    &#xa;
                </mxCell>
                &#xa;
                <mxCell id="q8knXYj4i9KtQvOT9DbQ-33" style="edgeStyle=none;rounded=0;orthogonalLoop=1;jettySize=auto;html=1;" parent="aBsPHc4NuhL00feyLAkd-1" source="q8knXYj4i9KtQvOT9DbQ-34" target="q8knXYj4i9KtQvOT9DbQ-36" edge="1">
                    &#xa;
                    <mxGeometry relative="1" as="geometry"/>
                    &#xa;
                </mxCell>
                &#xa;
                <mxCell id="q8knXYj4i9KtQvOT9DbQ-34" value="type: exprStm&lt;br&gt;text:&lt;br&gt;scope:" style="ellipse;whiteSpace=wrap;html=1;fillColor=#eeeeee;strokeColor=#36393d;" parent="aBsPHc4NuhL00feyLAkd-1" vertex="1">
                    &#xa;
                    <mxGeometry x="710" y="760" width="120" height="80" as="geometry"/>
                    &#xa;
                </mxCell>
                &#xa;
                <mxCell id="q8knXYj4i9KtQvOT9DbQ-35" value="type: additive&lt;br&gt;text:&lt;br&gt;scope:" style="ellipse;whiteSpace=wrap;html=1;fillColor=#eeeeee;strokeColor=#36393d;" parent="aBsPHc4NuhL00feyLAkd-1" vertex="1">
                    &#xa;
                    <mxGeometry x="910" y="640" width="120" height="80" as="geometry"/>
                    &#xa;
                </mxCell>
                &#xa;
                <mxCell id="q8knXYj4i9KtQvOT9DbQ-36" value="type: additive&lt;br&gt;text:&lt;br&gt;scope:" style="ellipse;whiteSpace=wrap;html=1;fillColor=#eeeeee;strokeColor=#36393d;" parent="aBsPHc4NuhL00feyLAkd-1" vertex="1">
                    &#xa;
                    <mxGeometry x="710" y="880" width="120" height="80" as="geometry"/>
                    &#xa;
                </mxCell>
                &#xa;
                <mxCell id="q8knXYj4i9KtQvOT9DbQ-37" value="type: id&lt;br&gt;text: &quot;a&quot;&lt;br&gt;scope:" style="ellipse;whiteSpace=wrap;html=1;fillColor=#eeeeee;strokeColor=#36393d;" parent="aBsPHc4NuhL00feyLAkd-1" vertex="1">
                    &#xa;
                    <mxGeometry x="1240" y="640" width="120" height="80" as="geometry"/>
                    &#xa;
                </mxCell>
                &#xa;
                <mxCell id="q8knXYj4i9KtQvOT9DbQ-38" value="type: assign&lt;br&gt;text: &quot;=&quot;&lt;br&gt;scope:" style="ellipse;whiteSpace=wrap;html=1;fillColor=#eeeeee;strokeColor=#36393d;" parent="aBsPHc4NuhL00feyLAkd-1" vertex="1">
                    &#xa;
                    <mxGeometry x="1380" y="640" width="120" height="80" as="geometry"/>
                    &#xa;
                </mxCell>
                &#xa;
                <mxCell id="q8knXYj4i9KtQvOT9DbQ-39" value="type: exprStm&lt;br&gt;text:&lt;br&gt;scope:" style="ellipse;whiteSpace=wrap;html=1;fillColor=#eeeeee;strokeColor=#36393d;" parent="aBsPHc4NuhL00feyLAkd-1" vertex="1">
                    &#xa;
                    <mxGeometry x="1530" y="640" width="120" height="80" as="geometry"/>
                    &#xa;
                </mxCell>
                &#xa;
            </root>
            &#xa;
        </mxGraphModel>
        &#xa;
    </diagram>
</mxfile>